<svg width="768" height="768" viewBox="0 0 768 768" fill="none" xmlns="http://www.w3.org/2000/svg">
<path d="M229.9 96H538.1C542.3 96 546.2 98.3 548.3 102.1L702.4 378C704.5 381.7 704.5 386.3 702.4 390.1L548.3 665.9C546.2 669.7 542.3 672 538.1 672H229.9C225.7 672 221.8 669.7 219.7 665.9L65.6 390C63.5 386.3 63.5 381.7 65.6 377.9L219.7 102C221.8 98.3 225.7 96 229.9 96ZM263.3 157.5C260 157.5 256.9 159.3 255.3 162.3L134.6 379.3C133 382.2 133 385.9 134.6 388.8L255.3 605.8C256.9 608.8 260 610.6 263.3 610.6H504.7C508 610.6 511.1 608.8 512.7 605.8L633.4 388.8C635 385.9 635 382.2 633.4 379.3L512.7 162.3C511.1 159.3 508 157.5 504.7 157.5H263.3Z" fill="#C6A052"/>
<path d="M234.6 296.6H301.5L276.3 341.2L272.8 347.4L254.2 380.3C254 380.7 253.8 381.1 253.6 381.5L218.7 443.6L188.5 390C186.5 386.5 186.5 382.1 188.5 378.5L234.6 296.6Z" fill="#C6A052"/>
<path d="M251.1 267.5L281.6 213.5C283.6 210 287.3 207.8 291.2 207.8L383.7 207.7L417.3 267.5H251.1Z" fill="#C6A052"/>
<path d="M416.5 207.7L477.1 207.6C481.1 207.6 484.8 209.8 486.8 213.3L533 295.3L499.5 354.8L466.6 296.7L416.5 207.7Z" fill="#C6A052"/>
<path d="M549.3 324.4L579.5 378C581.5 381.5 581.5 385.9 579.5 389.5L533.3 471.3H466.4L475.6 455L475.7 455.1L495.7 419.6L513.7 387.8C513.9 387.4 514.1 387 514.2 386.6L549.3 324.4Z" fill="#C6A052"/>
<path d="M516.9 500.5H446.2C446 500.5 445.8 500.5 445.7 500.5H350.9L384.5 560.3L476.8 560.2C480.8 560.2 484.4 558 486.4 554.5L516.9 500.5Z" fill="#C6A052"/>
<path d="M351.8 560.3L290.9 560.4C286.9 560.4 283.2 558.2 281.2 554.7L235 472.7L268.5 413.2L315.8 496.8C316 497.2 316.3 497.5 316.5 497.9L351.8 560.3Z" fill="#C6A052"/>
<path d="M334.7 301C335.7 299.3 337.4 298.2 339.4 298.2H428.6C430.5 298.2 432.3 299.3 433.3 301L477.9 381.2C478.9 382.9 478.9 385 477.9 386.7L433.3 467C432.3 468.7 430.6 469.8 428.6 469.8H339.4C337.5 469.8 335.7 468.7 334.7 467L290.1 386.8C289.1 385.1 289.1 383 290.1 381.3L334.7 301Z" fill="#C6A052"/>
</svg>
