<svg width="523" height="579" viewBox="0 0 523 579" fill="none" xmlns="http://www.w3.org/2000/svg">
<path d="M284.288 308.341L407.145 173.469H375.799L252.941 310.78C250.502 313.219 250.502 320.446 252.941 322.794L255.38 327.582L320.423 402.29H351.769L279.5 322.794C279.41 318.007 279.41 310.78 284.288 308.341Z" fill="#17B5CB"/>
<path d="M308.317 308.34C308.317 308.34 305.878 310.779 305.878 313.128C305.878 315.477 305.878 317.916 308.317 320.355C325.21 339.597 378.147 399.851 378.147 399.851H407.055L315.544 298.674L308.317 308.34Z" fill="#17B5CB"/>
<path d="M149.326 173.469H117.979L214.368 281.872C216.807 284.311 216.807 291.538 214.368 293.887L117.979 402.29H149.326C149.326 402.29 221.595 322.794 245.714 293.887C248.154 291.448 248.154 286.66 245.714 284.221L149.326 173.469Z" fill="#17B5CB"/>
<path d="M272.183 260.19C274.622 257.751 274.622 252.963 272.183 250.524C252.941 231.283 199.914 171.028 199.914 171.028H173.446L262.607 272.205C262.607 272.205 262.607 272.205 272.183 260.19Z" fill="#17B5CB"/>
<path d="M289.076 243.299L351.679 173.469H322.771L281.849 221.618C279.41 224.057 279.41 231.284 281.849 233.633L289.076 243.299Z" fill="#17B5CB"/>
<path d="M236.048 330.021L173.446 399.85H202.353L243.275 351.701C245.714 349.262 245.714 342.035 243.275 339.686C243.275 337.247 236.048 330.021 236.048 330.021Z" fill="#17B5CB"/>
<path d="M496.217 122.88L293.864 7.24948C276.971 -2.41649 255.29 -2.41649 238.488 7.24948L28.9076 122.88C12.0147 132.546 0 151.787 0 171.029V404.729C0 426.409 12.0147 445.651 28.9076 455.317L236.049 570.947C252.941 580.613 274.622 580.613 291.425 570.947L493.778 455.317C510.671 445.651 522.685 426.409 522.685 404.729V171.029C525.124 151.787 513.11 132.546 496.217 122.88ZM467.309 383.048C467.309 399.941 457.643 414.395 445.629 423.97L289.076 517.92C274.622 525.147 260.168 525.147 245.714 517.92L81.9349 423.97C67.4811 416.744 60.2542 399.851 60.2542 383.048V195.149C57.8152 178.256 67.4811 163.802 81.9349 154.226L243.366 60.2768C257.82 53.0499 272.273 53.0499 286.727 60.2768L443.28 154.226C457.734 161.453 464.96 178.346 464.96 195.149V383.048H467.309Z" fill="#17B5CB"/>
</svg>
