<svg width="217" height="282" viewBox="0 0 217 282" fill="none" xmlns="http://www.w3.org/2000/svg">
<path d="M163.23 23.1258C162.918 22.9698 162.606 22.8 162.313 22.5935L163.23 23.1258ZM163.23 23.1258C163.294 23.1728 163.355 23.2195 163.417 23.266L163.23 23.1258ZM163.417 23.266C163.635 23.4292 163.851 23.5914 164.062 23.7593L163.417 23.266ZM174.94 16.2714L174.904 16.3222L174.952 16.3616C180.671 21.1183 185.854 26.4437 190.493 32.306C205.121 50.8112 213.511 71.7745 215.53 95.3348C220.46 152.802 181.231 205.812 123.478 217.564C121.11 218.048 118.736 218.474 116.412 218.891C115.489 219.057 114.574 219.221 113.671 219.386L113.624 219.395L113.617 219.443C113.529 220.016 113.451 220.583 113.387 221.148L113.378 221.223H113.42C113.263 222.202 113.273 223.547 113.304 225.462C113.41 232.833 116.566 239.999 121.422 245.453C125.852 250.43 131.177 254.524 136.887 257.919C141.78 260.832 146.964 262.768 152.245 264.436C154.28 265.079 156.331 265.682 158.385 266.286C161.656 267.249 164.937 268.214 168.184 269.348C168.698 269.529 169.299 269.713 169.941 269.911C170.054 269.945 170.168 269.98 170.283 270.016C171.055 270.254 171.873 270.511 172.67 270.803C174.267 271.39 175.759 272.108 176.596 273.069L176.648 273.026L176.596 273.07C177.992 274.668 178.032 276.766 177.214 278.469C176.397 280.173 174.725 281.47 172.709 281.473C166.834 281.482 160.949 281.486 155.065 281.486H99.3536H99.0507H43.3436C39.4134 281.486 35.4832 281.482 31.5557 281.478C29.6031 281.477 27.6511 281.474 25.7002 281.473C23.6836 281.47 22.0121 280.173 21.1944 278.469C20.377 276.766 20.4177 274.668 21.8127 273.07V273.069C22.6495 272.108 24.1424 271.388 25.7388 270.802C26.5353 270.51 27.3544 270.251 28.126 270.013C28.2499 269.975 28.3728 269.938 28.4941 269.9C29.1266 269.706 29.7181 269.525 30.2249 269.348C33.4723 268.214 36.7524 267.249 40.0247 266.286C42.0777 265.682 44.1278 265.079 46.1647 264.436C51.4449 262.768 56.6293 260.832 61.5217 257.919C67.2268 254.524 72.5522 250.43 76.9869 245.453C81.6269 240.238 84.7095 233.459 85.0637 226.438L85.0638 226.435V226.434C85.0592 225.992 85.0546 225.552 85.0592 225.108C85.0821 223.466 85.0915 222.246 84.9946 221.313L84.9944 221.312L84.9941 221.309C84.9898 221.284 84.9866 221.257 84.9831 221.229C84.9828 221.226 84.9824 221.223 84.9824 221.223H84.9857L84.9761 221.147C84.894 220.502 84.7508 219.997 84.5058 219.59C84.2599 219.182 83.9145 218.875 83.4367 218.619C82.9602 218.367 82.3507 218.163 81.5751 217.961C80.8699 217.778 80.0235 217.594 79.0099 217.375L78.6998 217.307C75.8598 216.693 73.038 216 70.2297 215.261L70.1798 215.249L70.1542 215.293L66.5283 221.627C64.674 224.858 60.5522 225.976 57.3211 224.126C54.0898 222.273 52.9718 218.15 54.8214 214.919L59.604 206.575L59.61 206.564L59.612 206.553C59.6668 206.234 59.7396 205.911 59.8395 205.579C60.8441 202.302 64.3458 200.879 68.4427 201.916C69.9241 202.289 71.4046 202.682 72.8866 203.076C77.37 204.268 81.867 205.465 86.4378 206.089C112.446 209.663 136.546 204.091 158.179 189.279C182.446 172.668 197.673 149.62 201.866 120.532C207.487 81.5002 195.169 48.7782 164.104 23.7068C163.892 23.5385 163.674 23.3753 163.458 23.2122C163.396 23.1655 163.334 23.1189 163.271 23.0721L163.267 23.0685L163.261 23.0657C162.95 22.9102 162.641 22.7422 162.352 22.5384C161.178 21.7203 160.352 20.6023 159.888 19.3571V19.3551L159.886 19.3533C159.215 17.8379 159.211 16.2052 159.9 14.6342L159.901 14.6326V14.631C160.098 14.1166 160.348 13.6168 160.675 13.1493L167.127 3.8869C169.255 0.833036 173.462 0.0831306 176.517 2.20998C179.57 4.33681 180.325 8.54507 178.194 11.5989L174.94 16.2714Z" fill="black"/>
<path d="M163.23 23.1258C162.918 22.9698 162.606 22.8 162.313 22.5935L163.23 23.1258ZM163.23 23.1258C163.294 23.1728 163.355 23.2195 163.417 23.266M163.23 23.1258L163.417 23.266M163.417 23.266C163.635 23.4292 163.851 23.5914 164.062 23.7593L163.417 23.266ZM123.478 217.564C181.231 205.812 220.46 152.802 215.53 95.3348C213.511 71.7745 205.121 50.8112 190.493 32.306C185.854 26.4437 180.671 21.1183 174.952 16.3616L174.904 16.3222L174.94 16.2714L178.194 11.5989M123.478 217.564L123.492 217.63M123.478 217.564C121.11 218.048 118.736 218.474 116.412 218.891C115.489 219.057 114.574 219.221 113.671 219.386L113.624 219.395L113.617 219.443C113.529 220.016 113.451 220.583 113.387 221.148L113.378 221.223H113.42C113.263 222.202 113.273 223.547 113.304 225.462C113.41 232.833 116.566 239.999 121.422 245.453C125.852 250.43 131.177 254.524 136.887 257.919C141.78 260.832 146.964 262.768 152.245 264.436C154.28 265.079 156.331 265.682 158.385 266.286C161.656 267.249 164.937 268.214 168.184 269.348C168.698 269.529 169.299 269.713 169.941 269.911C170.054 269.945 170.168 269.98 170.283 270.016C171.055 270.254 171.873 270.511 172.67 270.803C174.267 271.39 175.759 272.108 176.596 273.069L176.648 273.026L176.596 273.07C177.992 274.668 178.032 276.766 177.214 278.469C176.397 280.173 174.725 281.47 172.709 281.473C166.834 281.482 160.949 281.486 155.065 281.486H99.3536H99.0507H43.3436C39.4134 281.486 35.4832 281.482 31.5557 281.478C29.6031 281.477 27.6511 281.474 25.7002 281.473C23.6836 281.47 22.0121 280.173 21.1944 278.469C20.377 276.766 20.4177 274.668 21.8127 273.07V273.069C22.6495 272.108 24.1424 271.388 25.7388 270.802C26.5353 270.51 27.3544 270.251 28.126 270.013C28.2499 269.975 28.3728 269.938 28.4941 269.9C29.1266 269.706 29.7181 269.525 30.2249 269.348M30.2249 269.348L30.2027 269.285M30.2249 269.348C33.4723 268.214 36.7524 267.249 40.0247 266.286C42.0777 265.682 44.1278 265.079 46.1647 264.436C51.4449 262.768 56.6293 260.832 61.5217 257.919C67.2268 254.524 72.5522 250.43 76.9869 245.453M76.9869 245.453L76.9367 245.408M76.9869 245.453C81.6269 240.238 84.7095 233.459 85.0637 226.438L85.0638 226.435V226.434C85.0592 225.992 85.0546 225.552 85.0592 225.108C85.0821 223.466 85.0915 222.246 84.9946 221.313L84.9944 221.312L84.9941 221.309C84.9898 221.284 84.9866 221.257 84.9831 221.229C84.9828 221.226 84.9824 221.223 84.9824 221.223H84.9857L84.9761 221.147C84.894 220.502 84.7508 219.997 84.5058 219.59C84.2599 219.182 83.9145 218.875 83.4367 218.619C82.9602 218.367 82.3507 218.163 81.5751 217.961C80.8699 217.778 80.0235 217.594 79.0099 217.375L78.6998 217.307C75.8598 216.693 73.038 216 70.2297 215.261L70.1798 215.249L70.1542 215.293L66.5283 221.627C64.674 224.858 60.5522 225.976 57.3211 224.126C54.0898 222.273 52.9718 218.15 54.8214 214.919L59.604 206.575L59.61 206.564L59.612 206.553C59.6668 206.234 59.7396 205.911 59.8395 205.579C60.8441 202.302 64.3458 200.879 68.4427 201.916C69.9241 202.289 71.4046 202.682 72.8866 203.076C77.37 204.268 81.867 205.465 86.4378 206.089C112.446 209.663 136.546 204.091 158.179 189.279C182.446 172.668 197.673 149.62 201.866 120.532C207.487 81.5002 195.169 48.7782 164.104 23.7068C163.892 23.5385 163.674 23.3753 163.458 23.2122C163.396 23.1655 163.334 23.1189 163.271 23.0721L163.267 23.0685L163.261 23.0657C162.95 22.9102 162.641 22.7422 162.352 22.5384C161.178 21.7203 160.352 20.6023 159.888 19.3571V19.3551L159.886 19.3533C159.215 17.8379 159.211 16.2052 159.9 14.6342L159.901 14.6326V14.631C160.098 14.1166 160.348 13.6168 160.675 13.1493M160.675 13.1493L160.62 13.1108M160.675 13.1493L167.127 3.8869C169.255 0.833036 173.462 0.0831306 176.517 2.20998C179.57 4.33681 180.325 8.54507 178.194 11.5989M178.194 11.5989L178.249 11.6374" stroke="#007DAE" stroke-width="0.134563"/>
<path d="M13.0662 153.322C49.0251 207.127 134.286 211.39 170.522 153.839C176.917 143.182 181.18 132.524 183.311 119.734C183.311 111.208 183.311 102.682 183.311 94.1561C183.311 87.7615 179.048 79.2355 176.917 72.8409C166.259 42.9995 138.549 25.9473 106.576 21.6843C95.9186 19.5527 85.2609 21.6843 74.6034 25.9473C66.0772 28.0789 59.6826 34.4735 51.1566 38.7364C42.6305 45.131 36.236 53.6572 29.8414 64.3147C10.6577 102.682 27.7098 151.708 70.3403 166.628C80.998 170.891 91.6555 168.759 102.313 168.759C115.102 166.628 127.891 160.234 138.549 151.708C157.732 134.655 164.128 104.814 153.469 81.367C144.943 66.4463 132.154 55.7887 117.234 49.3941C110.839 47.2626 104.445 47.2626 98.0501 47.2626C74.6034 49.3941 53.2881 64.3147 49.0251 89.893C44.762 113.34 61.8142 136.786 85.2609 143.182C93.7871 143.182 100.182 145.313 108.708 141.05C117.234 136.786 125.76 130.392 130.023 121.866C119.365 143.182 91.6555 149.576 70.3403 136.786C61.8142 130.392 55.4197 123.997 51.1566 113.34C49.0251 102.682 49.0251 89.893 53.2881 79.2355C59.6826 68.5778 68.2088 60.0518 78.8663 53.6572C102.313 42.9995 132.154 49.3941 147.075 72.8409C155.601 87.7615 157.732 102.682 155.601 119.734C147.075 160.234 100.182 179.417 63.9457 162.365C51.1566 155.971 42.6305 145.313 34.1043 134.655C19.1837 111.208 19.1837 79.2355 38.3674 55.7887C49.0251 45.131 57.5511 32.3419 72.4718 28.0789C83.1294 23.8158 93.7871 21.6843 106.576 23.8158C123.628 25.9473 140.68 30.2104 153.469 42.9995C185.443 70.7093 189.706 113.34 170.522 149.576C157.732 173.022 134.286 187.943 108.708 192.206C76.7349 196.469 46.8935 185.811 25.5783 164.497C12.7891 149.576 4.26305 132.524 0 113.34C10.6577 170.891 74.6034 211.39 130.023 185.811C138.549 181.548 144.943 175.154 153.469 168.759C164.128 160.234 170.522 147.445 176.917 134.655C183.311 117.603 183.311 100.551 179.048 83.4984C174.785 68.5778 166.259 53.6572 153.469 42.9995C123.628 17.4212 83.1294 17.4212 51.1566 40.868C42.6305 49.3941 36.236 57.9201 31.9729 68.5778C29.8414 77.1039 27.7098 83.4984 25.5783 92.0246C21.3152 115.471 34.1043 132.524 46.8935 149.576C53.2881 155.971 61.8142 158.102 68.2088 162.365C78.8663 168.759 89.524 168.759 100.182 166.628C117.234 164.497 132.154 155.971 142.812 143.182C147.075 136.786 149.206 130.392 153.469 123.997C159.865 109.077 157.732 89.893 147.075 74.9724C138.549 66.4463 130.023 57.9201 119.365 53.6572C87.3925 40.868 46.8935 66.4463 51.1566 102.682C53.2881 115.471 59.6826 126.129 70.3403 134.655C85.2609 145.313 106.576 143.182 119.365 130.392C104.445 145.313 80.998 143.182 66.0772 130.392C53.2881 115.471 49.0251 96.2876 57.5511 77.1039C59.6826 70.7093 66.0772 64.3147 70.3403 60.0518C76.7349 57.9201 83.1294 51.5256 89.524 51.5256C102.313 51.5256 112.971 51.5256 123.628 55.7887C134.286 60.0518 142.812 70.7093 149.206 81.367C161.996 111.208 149.206 149.576 117.234 160.234C100.182 166.628 83.1294 166.628 66.0772 160.234C29.8414 143.182 17.0522 96.2876 36.236 62.1832C40.4989 53.6572 46.8935 49.3941 53.2881 42.9995C59.6826 38.7364 66.0772 32.3419 74.6034 30.2104C98.0501 21.6843 119.365 25.9473 140.68 36.6049C155.601 45.131 166.259 60.0518 172.654 74.9724C183.311 98.4192 181.18 123.997 170.522 145.313C159.865 166.628 140.68 181.548 117.234 187.943C80.998 198.6 42.6305 185.811 19.1837 153.839C8.52605 138.917 4.26305 123.997 2.13152 106.945C2.13152 98.4192 2.13152 87.7615 2.13152 79.2355C-8.52609 138.917 42.6305 200.732 106.576 190.074C115.102 187.943 123.628 185.811 132.154 181.548C164.128 164.497 183.311 132.524 179.048 96.2876C176.917 85.63 174.785 74.9724 168.391 66.4463C164.128 60.0518 159.865 51.5256 153.469 47.2626C144.943 40.868 134.286 34.4735 125.76 30.2104C112.971 25.9473 98.0501 25.9473 83.1294 28.0789C66.0772 32.3419 55.4197 42.9995 42.6305 53.6572C29.8414 68.5778 25.5783 87.7615 27.7098 106.945C31.9729 136.786 55.4197 160.234 85.2609 164.497C100.182 166.628 112.971 162.365 125.76 155.971C144.943 145.313 153.469 123.997 153.469 102.682C151.338 66.4463 112.971 40.868 78.8663 57.9201C70.3403 62.1832 63.9457 68.5778 59.6826 74.9724C55.4197 85.63 53.2881 96.2876 55.4197 109.077C57.5511 119.734 63.9457 126.129 72.4718 132.524C83.1294 141.05 95.9186 141.05 108.708 136.786C91.6555 143.182 72.4718 136.786 61.8142 121.866C55.4197 111.208 53.2881 96.2876 57.5511 83.4984C59.6826 74.9724 66.0772 70.7093 70.3403 64.3147C80.998 55.7887 93.7871 51.5256 108.708 53.6572C119.365 55.7887 127.891 62.1832 136.417 68.5778C140.68 72.8409 144.943 77.1039 147.075 83.4984C155.601 102.682 151.338 126.129 138.549 143.182C119.365 166.628 85.2609 170.891 59.6826 153.839C38.3674 138.917 25.5783 117.603 29.8414 92.0246C31.9729 83.4984 34.1043 77.1039 36.236 68.5778C55.4197 28.0789 106.576 17.4212 142.812 40.868C153.469 47.2626 159.865 57.9201 166.259 66.4463C174.785 81.367 176.917 96.2876 176.917 113.34C174.785 136.786 161.996 158.102 142.812 173.022C130.023 179.417 119.365 185.811 104.445 187.943C93.7871 190.074 80.998 187.943 70.3403 185.811C57.5511 181.548 44.762 175.154 34.1043 166.628C29.8414 160.234 23.4468 155.971 19.1837 149.576C-2.13152 117.603 0 79.2355 19.1837 47.2626C-8.52609 89.893 2.13152 149.576 46.8935 175.154C57.5511 181.548 68.2088 187.943 80.998 187.943C95.9186 187.943 110.839 187.943 125.76 181.548C134.286 177.285 140.68 173.022 149.206 166.628C159.865 158.102 164.128 147.445 170.522 136.786C174.785 126.129 174.785 115.471 176.917 104.814C176.917 92.0246 172.654 79.2355 166.259 66.4463C157.732 51.5256 144.943 40.868 130.023 34.4735C117.234 28.0789 102.313 28.0789 89.524 30.2104C70.3403 32.3419 55.4197 42.9995 42.6305 57.9201C14.9206 94.1561 31.9729 147.445 74.6034 160.234C98.0501 166.628 123.628 160.234 138.549 141.05C140.68 136.786 144.943 130.392 147.075 126.129C161.996 89.893 130.023 45.131 89.524 55.7887C78.8663 60.0518 68.2088 66.4463 61.8142 77.1039C55.4197 87.7615 55.4197 100.551 59.6826 113.34C66.0772 126.129 76.7349 134.655 91.6555 136.786C72.4718 134.655 55.4197 117.603 57.5511 98.4192C59.6826 83.4984 63.9457 68.5778 78.8663 62.1832C87.3925 57.9201 95.9186 55.7887 104.445 55.7887C127.891 57.9201 144.943 77.1039 149.206 100.551C151.338 117.603 144.943 136.786 130.023 147.445C121.497 153.839 110.839 158.102 100.182 160.234C85.2609 162.365 72.4718 158.102 59.6826 149.576C49.0251 143.182 40.4989 134.655 36.236 121.866C31.9729 113.34 29.8414 102.682 31.9729 92.0246C34.1043 83.4984 36.236 77.1039 38.3674 68.5778C40.4989 60.0518 49.0251 55.7887 53.2881 49.3941C59.6826 42.9995 66.0772 38.7364 74.6034 36.6049C117.234 19.5527 170.522 49.3941 172.654 96.2876C172.654 109.077 174.785 123.997 168.391 136.786C153.469 168.759 119.365 187.943 85.2609 185.811C59.6826 183.68 38.3674 170.891 23.4468 151.708C4.26305 123.997 0 89.893 14.9206 60.0518C25.5783 42.9995 36.236 25.9473 55.4197 17.4212C17.0522 38.7364 -2.13152 85.63 12.7891 128.26C19.1837 143.182 27.7098 155.971 38.3674 164.497C44.762 168.759 49.0251 175.154 55.4197 177.285C70.3403 181.548 85.2609 187.943 100.182 185.811C110.839 183.68 119.365 181.548 130.023 177.285C142.812 170.891 151.338 162.365 159.865 151.708C164.128 145.313 168.391 136.786 170.522 130.392C179.048 100.551 172.654 70.7093 147.075 49.3941C140.68 45.131 134.286 40.868 127.891 36.6049C102.313 25.9473 72.4718 30.2104 53.2881 49.3941C46.8935 57.9201 40.4989 66.4463 36.236 74.9724C27.7098 100.551 34.1043 126.129 53.2881 145.313C63.9457 153.839 78.8663 158.102 91.6555 160.234C110.839 160.234 125.76 151.708 138.549 136.786C147.075 123.997 149.206 111.208 147.075 96.2876C142.812 79.2355 132.154 66.4463 117.234 60.0518C106.576 55.7887 93.7871 57.9201 83.1294 62.1832C57.5511 72.8409 51.1566 109.077 72.4718 128.26C53.2881 109.077 57.5511 77.1039 80.998 64.3147C89.524 60.0518 98.0501 60.0518 106.576 60.0518C110.839 60.0518 117.234 62.1832 121.497 64.3147C149.206 79.2355 153.469 119.734 132.154 141.05C127.891 145.313 123.628 149.576 119.365 151.708C106.576 158.102 91.6555 160.234 76.7349 155.971C51.1566 147.445 34.1043 123.997 34.1043 96.2876C34.1043 87.7615 36.236 81.367 40.4989 72.8409C46.8935 60.0518 55.4197 51.5256 66.0772 42.9995C100.182 21.6843 147.075 36.6049 164.128 72.8409C166.259 81.367 168.391 87.7615 170.522 96.2876C172.654 111.208 168.391 126.129 164.128 138.917C147.075 175.154 100.182 192.206 61.8142 177.285C55.4197 175.154 49.0251 168.759 42.6305 166.628C31.9729 160.234 23.4468 147.445 17.0522 134.655C-8.52609 81.367 29.8414 17.4212 87.3925 8.89511C98.0501 8.89511 106.576 8.89511 117.234 8.89511C57.5511 0.369019 0 49.3941 10.6577 113.34C12.7891 126.129 17.0522 134.655 23.4468 145.313C31.9729 155.971 40.4989 166.628 53.2881 173.022C61.8142 177.285 70.3403 179.417 80.998 181.548C98.0501 183.68 112.971 181.548 127.891 175.154C138.549 170.891 144.943 162.365 153.469 155.971C170.522 134.655 176.917 104.814 166.259 79.2355C161.996 72.8409 159.865 64.3147 153.469 57.9201C132.154 36.6049 102.313 25.9473 74.6034 38.7364C53.2881 49.3941 40.4989 68.5778 36.236 92.0246C34.1043 100.551 36.236 109.077 38.3674 117.603C42.6305 130.392 51.1566 138.917 61.8142 147.445C68.2088 151.708 72.4718 153.839 78.8663 155.971C108.708 162.365 140.68 143.182 144.943 111.208C147.075 96.2876 138.549 83.4984 130.023 72.8409C110.839 53.6572 74.6034 57.9201 63.9457 83.4984C61.8142 89.893 59.6826 96.2876 61.8142 102.682C59.6826 81.367 76.7349 64.3147 95.9186 62.1832C117.234 60.0518 136.417 74.9724 142.812 94.1561C144.943 109.077 142.812 123.997 132.154 136.786C125.76 143.182 119.365 147.445 110.839 151.708C104.445 153.839 100.182 155.971 93.7871 155.971C61.8142 155.971 31.9729 126.129 38.3674 89.893C40.4989 81.367 42.6305 74.9724 44.762 68.5778C63.9457 34.4735 110.839 25.9473 140.68 49.3941C149.206 55.7887 157.732 64.3147 161.996 74.9724C168.391 87.7615 170.522 100.551 168.391 115.471C164.128 132.524 157.732 147.445 144.943 160.234C119.365 181.548 87.3925 185.811 57.5511 173.022C34.1043 160.234 17.0522 138.917 12.7891 111.208C10.6577 92.0246 12.7891 74.9724 21.3152 57.9201C29.8414 42.9995 40.4989 30.2104 55.4197 23.8158C63.9457 21.6843 70.3403 15.2898 78.8663 13.1582C119.365 4.63207 161.996 21.6843 181.18 57.9201C151.338 4.63206 70.3403 -8.15709 29.8414 45.131C23.4468 53.6572 21.3152 60.0518 17.0522 68.5778C6.39457 94.1561 10.6577 119.734 25.5783 143.182C31.9729 149.576 36.236 155.971 42.6305 162.365C53.2881 170.891 63.9457 177.285 76.7349 179.417C93.7871 181.548 110.839 179.417 125.76 173.022C142.812 164.497 155.601 149.576 164.128 132.524C168.391 121.866 168.391 111.208 168.391 100.551C166.259 83.4984 159.865 70.7093 149.206 57.9201C140.68 51.5256 132.154 47.2626 123.628 40.868C117.234 36.6049 108.708 38.7364 102.313 38.7364C74.6034 36.6049 46.8935 53.6572 40.4989 81.367C34.1043 104.814 40.4989 128.26 61.8142 143.182C68.2088 147.445 74.6034 151.708 83.1294 153.839C104.445 158.102 121.497 149.576 134.286 132.524C136.417 128.26 138.549 123.997 140.68 117.603C147.075 87.7615 123.628 57.9201 91.6555 64.3147C83.1294 66.4463 78.8663 70.7093 72.4718 74.9724C87.3925 62.1832 112.971 57.9201 127.891 74.9724C136.417 85.63 142.812 98.4192 140.68 111.208C138.549 121.866 134.286 132.524 125.76 141.05C112.971 151.708 98.0501 153.839 83.1294 151.708C76.7349 151.708 70.3403 149.576 66.0772 145.313C61.8142 141.05 55.4197 138.917 51.1566 132.524C38.3674 117.603 36.236 96.2876 42.6305 79.2355C46.8935 72.8409 46.8935 66.4463 53.2881 60.0518C68.2088 45.131 85.2609 36.6049 106.576 38.7364C119.365 40.868 132.154 45.131 142.812 53.6572C153.469 66.4463 164.128 79.2355 166.259 96.2876C170.522 134.655 144.943 170.891 106.576 177.285C91.6555 179.417 76.7349 179.417 63.9457 173.022C25.5783 155.971 6.39457 115.471 17.0522 74.9724C21.3152 62.1832 27.7098 51.5256 36.236 40.868C44.762 32.3419 53.2881 25.9473 63.9457 21.6843C76.7349 17.4212 91.6555 13.1582 106.576 13.1582C136.417 17.4212 164.128 34.4735 179.048 60.0518C193.969 85.63 193.969 115.471 185.443 141.05C204.626 89.893 176.917 25.9473 119.365 15.2898C110.839 15.2898 104.445 13.1582 95.9186 13.1582C76.7349 15.2898 57.5511 21.6843 42.6305 34.4735C23.4468 53.6572 10.6577 77.1039 14.9206 104.814C19.1837 117.603 19.1837 130.392 27.7098 143.182C38.3674 158.102 51.1566 166.628 66.0772 173.022C76.7349 177.285 87.3925 179.417 100.182 177.285C108.708 175.154 115.102 173.022 123.628 170.891C142.812 162.365 159.865 145.313 161.996 123.997C164.128 115.471 168.391 109.077 166.259 100.551C161.996 83.4984 157.732 70.7093 147.075 57.9201C121.497 32.3419 70.3403 32.3419 51.1566 66.4463C44.762 77.1039 38.3674 87.7615 40.4989 100.551C44.762 128.26 66.0772 153.839 95.9186 151.708C125.76 149.576 147.075 117.603 136.417 89.893C130.023 77.1039 119.365 68.5778 104.445 64.3147C123.628 68.5778 136.417 83.4984 138.549 102.682C140.68 119.734 130.023 132.524 119.365 143.182C115.102 147.445 106.576 147.445 100.182 149.576C89.524 151.708 78.8663 149.576 70.3403 145.313C57.5511 138.917 49.0251 128.26 44.762 115.471C38.3674 96.2876 44.762 81.367 53.2881 64.3147C57.5511 55.7887 66.0772 51.5256 74.6034 47.2626C83.1294 42.9995 91.6555 42.9995 100.182 40.868C108.708 40.868 119.365 42.9995 127.891 47.2626C142.812 53.6572 153.469 66.4463 159.865 81.367C164.128 92.0246 164.128 102.682 164.128 113.34C164.128 128.26 155.601 138.917 147.075 151.708C123.628 179.417 85.2609 183.68 53.2881 164.497C38.3674 153.839 27.7098 141.05 21.3152 123.997C12.7891 100.551 17.0522 77.1039 29.8414 55.7887C34.1043 49.3941 38.3674 42.9995 44.762 36.6049C66.0772 19.5527 91.6555 15.2898 117.234 17.4212C136.417 21.6843 151.338 32.3419 166.259 45.131C204.626 85.63 193.969 149.576 149.206 183.68C140.68 190.074 132.154 187.943 125.76 196.469C185.443 173.022 213.152 94.1561 166.259 45.131C159.865 38.7364 153.469 32.3419 144.943 28.0789C134.286 23.8158 123.628 19.5527 112.971 17.4212C100.182 15.2898 87.3925 17.4212 74.6034 19.5527C61.8142 23.8158 49.0251 30.2104 40.4989 40.868C25.5783 57.9201 17.0522 79.2355 17.0522 100.551C19.1837 111.208 21.3152 123.997 25.5783 134.655C29.8414 145.313 38.3674 151.708 46.8935 160.234C57.5511 168.759 70.3403 173.022 85.2609 175.154C95.9186 177.285 106.576 175.154 117.234 170.891C134.286 162.365 149.206 151.708 157.732 134.655C168.391 106.945 164.128 74.9724 140.68 55.7887C121.497 40.868 95.9186 36.6049 74.6034 47.2626C63.9457 53.6572 53.2881 60.0518 49.0251 72.8409C38.3674 100.551 44.762 134.655 74.6034 145.313C85.2609 149.576 93.7871 147.445 104.445 147.445C115.102 145.313 121.497 136.786 127.891 130.392C132.154 126.129 134.286 119.734 136.417 115.471C138.549 109.077 136.417 102.682 136.417 96.2876C134.286 92.0246 132.154 85.63 130.023 81.367C138.549 100.551 138.549 121.866 123.628 136.786C108.708 147.445 87.3925 153.839 70.3403 143.182C61.8142 136.786 55.4197 130.392 51.1566 121.866C46.8935 111.208 42.6305 102.682 44.762 92.0246C46.8935 81.367 49.0251 70.7093 57.5511 62.1832C70.3403 47.2626 91.6555 42.9995 110.839 45.131C140.68 49.3941 161.996 77.1039 161.996 106.945C161.996 119.734 155.601 132.524 149.206 145.313C140.68 158.102 130.023 162.365 117.234 168.759C106.576 173.022 95.9186 175.154 83.1294 173.022C76.7349 173.022 72.4718 170.891 66.0772 168.759C23.4468 151.708 4.26305 98.4192 29.8414 57.9201C36.236 49.3941 42.6305 38.7364 53.2881 32.3419C70.3403 21.6843 89.524 17.4212 110.839 19.5527C127.891 21.6843 142.812 28.0789 155.601 38.7364C196.1 72.8409 196.1 136.786 157.732 173.022C149.206 179.417 142.812 185.811 132.154 190.074C106.576 200.732 78.8663 200.732 53.2881 190.074C106.576 213.522 176.917 181.548 185.443 119.734C187.574 100.551 185.443 83.4984 176.917 66.4463C172.654 57.9201 166.259 51.5256 159.865 42.9995C153.469 34.4735 142.812 32.3419 134.286 25.9473C127.891 21.6843 119.365 21.6843 110.839 19.5527C78.8663 15.2898 49.0251 28.0789 31.9729 55.7887C17.0522 81.367 14.9206 111.208 29.8414 136.786C36.236 143.182 40.4989 149.576 46.8935 155.971C55.4197 164.497 66.0772 166.628 74.6034 170.891C85.2609 173.022 95.9186 173.022 106.576 170.891C121.497 168.759 132.154 162.365 142.812 151.708C157.732 136.786 164.128 115.471 159.865 94.1561C157.732 87.7615 155.601 81.367 153.469 74.9724C134.286 40.868 85.2609 32.3419 57.5511 64.3147C49.0251 77.1039 44.762 92.0246 46.8935 106.945C51.1566 132.524 74.6034 147.445 98.0501 145.313C117.234 143.182 136.417 126.129 134.286 104.814C136.417 126.129 115.102 143.182 95.9186 145.313C78.8663 147.445 63.9457 138.917 55.4197 126.129C49.0251 115.471 44.762 104.814 46.8935 92.0246C49.0251 81.367 53.2881 72.8409 59.6826 64.3147C68.2088 57.9201 76.7349 47.2626 89.524 47.2626C104.445 45.131 117.234 47.2626 130.023 53.6572C161.996 72.8409 168.391 119.734 142.812 147.445C136.417 155.971 125.76 162.365 117.234 166.628C106.576 170.891 95.9186 170.891 85.2609 170.891C78.8663 170.891 74.6034 168.759 68.2088 166.628C23.4468 149.576 6.39457 89.893 38.3674 51.5256C70.3403 8.89511 134.286 11.0266 166.259 53.6572C172.654 62.1832 176.917 70.7093 181.18 81.367C189.706 117.603 179.048 153.839 149.206 177.285C112.971 202.863 63.9457 202.863 31.555 172.549C17.7257 159.647 13.0662 153.322 13.0662 153.322Z" fill="black"/>
</svg>
