<svg width="353" height="304" viewBox="0 0 353 304" fill="none" xmlns="http://www.w3.org/2000/svg">
<path d="M47.7661 198.095L24 239.481L69.4834 239.891L175.611 57.9567L193.641 58.3665L194.87 57.1372L162.499 1H160.45L126.03 57.1372L128.079 60.0056H141.192L62.5175 198.095H47.7661Z" fill="white" stroke="white" stroke-width="0.819522"/>
<path d="M174.792 111.635L178.89 107.128L257.564 239.891H305.096L202.656 65.7422H193.231L169.875 104.669L174.792 111.635Z" fill="white" stroke="white" stroke-width="0.819522"/>
<path d="M203.065 197.275H125.211V191.948H116.606L90.3812 237.432V240.3H223.963L227.241 237.432L203.065 197.275Z" fill="white" stroke="white" stroke-width="0.819522"/>
<path fill-rule="evenodd" clip-rule="evenodd" d="M132.996 170.641L147.408 169.882L162.83 164.067L176.61 169.882L191.4 170.641L162.83 123.109V158.758L132.996 170.641Z" fill="white"/>
<path d="M132.996 170.641L162.83 123.109M132.996 170.641L162.83 158.758M132.996 170.641L147.408 169.882L162.83 164.067L176.61 169.882L191.4 170.641M162.83 123.109L191.4 170.641M162.83 123.109V158.758M191.4 170.641L162.83 158.758" stroke="black" stroke-width="0.505662"/>
<g filter="url(#filter0_d_148_19)">
<path d="M29.65 289.35C30.05 290.583 30.5833 291.45 31.25 291.95C31.9167 292.45 32.9833 292.767 34.45 292.9L34.55 293.1L34.2 295.15C33.8 295.15 33.0667 295.117 32 295.05C30.9667 295.017 29.9333 295 28.9 295C27.3 295 25.75 295.067 24.25 295.2C22.7833 295.333 21.85 295.433 21.45 295.5L21.3 295.15L21.5 293.2C23.2 293.067 24.3667 292.867 25 292.6C25.6333 292.333 25.95 291.9 25.95 291.3C25.95 290.633 25.8 289.833 25.5 288.9L23.85 283.45C23.05 283.417 21.3167 283.4 18.65 283.4C17.05 283.4 15.2333 283.533 13.2 283.8L11.35 289C11.05 289.9 10.9 290.55 10.9 290.95C10.9 291.683 11.1333 292.217 11.6 292.55C12.0667 292.85 12.8333 293 13.9 293H16.75L16.85 293.2L16.55 295.35C16.15 295.317 15.2333 295.25 13.8 295.15C12.3667 295.05 10.9667 295 9.6 295C8.36667 295 7.21667 295.017 6.15 295.05C5.11667 295.083 4.43333 295.117 4.1 295.15L4.5 292.8C5.43333 292.7 6.18333 292.383 6.75 291.85C7.31667 291.283 7.86667 290.317 8.4 288.95L18.15 263.4L21.3 262.55H21.7C21.9 263.35 22.4 265.2 23.2 268.1C24.0333 271 25.0333 274.433 26.2 278.4C27.4 282.367 28.55 286.017 29.65 289.35ZM18.5 281.35C19.6667 281.35 21.2167 281.267 23.15 281.1L19.2 268H18.85L14.1 281.35H18.5ZM44.5563 289.75C44.5563 290.717 44.6396 291.4 44.8063 291.8C44.9729 292.167 45.3063 292.417 45.8063 292.55C46.3396 292.683 47.2396 292.75 48.5063 292.75C51.3063 292.75 53.2896 292.617 54.4563 292.35C55.6563 292.083 56.5063 291.55 57.0063 290.75C57.5063 289.95 57.8896 288.583 58.1563 286.65L60.3563 286.4L60.5063 286.65C60.4063 287.117 60.2063 288.2 59.9063 289.9C59.6063 291.567 59.3563 293.283 59.1562 295.05L58.9062 295.35C57.7729 295.317 55.4563 295.25 51.9563 295.15C48.4563 295.05 45.7229 295 43.7563 295C42.1896 295 40.7229 295.067 39.3563 295.2C38.0229 295.333 37.1729 295.433 36.8063 295.5L37.1063 293.2C38.6063 293 39.6229 292.617 40.1562 292.05C40.7229 291.45 41.0063 290.433 41.0063 289L41.0563 268C41.0563 266.933 40.9229 266.217 40.6563 265.85C40.4229 265.483 39.9396 265.3 39.2063 265.3C38.8729 265.3 38.5396 265.317 38.2063 265.35C37.8729 265.383 37.6396 265.4 37.5063 265.4L37.4063 265.2L37.7563 263C38.1896 263.033 39.0563 263.067 40.3563 263.1C41.6896 263.133 43.1396 263.15 44.7063 263.15C48.6729 263.15 51.7563 263.117 53.9563 263.05C56.1563 262.95 58.0729 262.783 59.7063 262.55L59.8563 262.85C59.8229 263.05 59.7229 263.533 59.5563 264.3C59.4229 265.033 59.2729 266.017 59.1063 267.25C58.9396 268.483 58.8063 269.783 58.7063 271.15L56.3063 271.35C56.3063 271.183 56.3229 270.9 56.3563 270.5C56.3896 270.067 56.4063 269.633 56.4063 269.2C56.4063 268.033 56.2563 267.233 55.9563 266.8C55.6563 266.333 55.0063 266.033 54.0063 265.9C53.0063 265.733 51.2563 265.65 48.7563 265.65C47.5896 265.65 46.7896 265.683 46.3563 265.75C45.9229 265.817 45.6396 265.983 45.5063 266.25C45.3729 266.483 45.2896 266.933 45.2563 267.6L44.8563 277.3L50.0063 277.35C50.7729 277.35 51.8563 277.283 53.2563 277.15C54.6896 276.983 55.6396 276.867 56.1063 276.8L56.3063 277.05L55.6063 280C55.1396 279.967 54.2229 279.933 52.8563 279.9C51.5229 279.867 50.1063 279.85 48.6062 279.85C47.3729 279.85 46.0896 279.967 44.7563 280.2C44.6229 285 44.5563 288.183 44.5563 289.75ZM75.0973 265.1C72.2306 265.233 70.2973 265.417 69.2973 265.65C68.2973 265.883 67.6139 266.367 67.2473 267.1C66.8806 267.833 66.5473 269.267 66.2473 271.4L63.8973 271.6C63.9639 271.1 64.0806 269.983 64.2473 268.25C64.4473 266.483 64.5806 264.717 64.6473 262.95L65.0973 262.55L69.2473 263.1H84.7473L88.9973 262.55L89.4473 262.95C89.5139 264.717 89.6306 266.45 89.7973 268.15C89.9973 269.85 90.1306 270.933 90.1973 271.4L87.8473 271.6C87.4806 269.4 87.1139 267.917 86.7473 267.15C86.3806 266.383 85.7306 265.883 84.7973 265.65C83.8639 265.417 82.0639 265.233 79.3973 265.1C79.1973 267.1 79.0139 270.633 78.8473 275.7C78.6806 280.767 78.5973 285.333 78.5973 289.4C78.5973 290.633 78.8139 291.517 79.2473 292.05C79.6806 292.55 80.4139 292.8 81.4473 292.8C82.1806 292.8 82.7806 292.783 83.2473 292.75C83.7473 292.717 84.0639 292.683 84.1973 292.65L84.3473 292.85L83.8973 295.15C83.3639 295.15 82.3639 295.117 80.8973 295.05C79.4306 295.017 77.9806 295 76.5473 295C75.1473 295 73.7806 295.017 72.4473 295.05C71.1139 295.117 70.1973 295.167 69.6973 295.2L70.0973 293.05C71.7639 292.917 72.9139 292.717 73.5473 292.45C74.1806 292.15 74.5973 291.633 74.7973 290.9C74.9973 290.133 75.0973 288.8 75.0973 286.9V265.1ZM121.742 267.8C121.542 271.7 121.376 275.783 121.242 280.05C121.109 284.283 121.042 287.4 121.042 289.4C121.042 290.767 121.192 291.683 121.492 292.15C121.792 292.583 122.376 292.8 123.242 292.8C123.742 292.8 124.209 292.783 124.642 292.75C125.076 292.717 125.359 292.683 125.492 292.65L125.592 292.85L125.142 295.15C124.709 295.117 123.892 295.083 122.692 295.05C121.492 295.017 120.259 295 118.992 295C117.892 295 116.759 295.017 115.592 295.05C114.459 295.083 113.676 295.1 113.242 295.1L113.692 292.85C114.792 292.817 115.592 292.667 116.092 292.4C116.626 292.133 116.992 291.633 117.192 290.9C117.392 290.167 117.492 289.033 117.492 287.5V279.95L109.892 279.9C109.226 279.9 107.842 279.983 105.742 280.15C103.676 280.283 102.292 280.383 101.592 280.45L101.392 289.4C101.392 290.767 101.542 291.683 101.842 292.15C102.142 292.583 102.726 292.8 103.592 292.8C104.092 292.8 104.559 292.783 104.992 292.75C105.426 292.717 105.709 292.683 105.842 292.65L105.942 292.85L105.492 295.15C105.226 295.117 104.676 295.083 103.842 295.05C103.042 295.017 102.176 295 101.242 295C99.7755 295 98.1422 295.067 96.3422 295.2C94.5755 295.333 93.6755 295.467 93.6422 295.6L93.9422 293.3C95.4755 293 96.5089 292.567 97.0422 292C97.5755 291.4 97.8422 290.4 97.8422 289L97.8922 268C97.8922 266.933 97.7589 266.217 97.4922 265.85C97.2589 265.483 96.7755 265.3 96.0422 265.3C95.7089 265.3 95.3755 265.317 95.0422 265.35C94.7089 265.383 94.4755 265.4 94.3422 265.4L94.2422 265.2L94.5922 263C94.9922 263.033 95.7422 263.067 96.8422 263.1C97.9422 263.133 99.0422 263.15 100.142 263.15C101.042 263.15 102.059 263.1 103.192 263C104.359 262.867 105.126 262.767 105.492 262.7L105.292 264.95C104.292 265.117 103.576 265.333 103.142 265.6C102.709 265.833 102.426 266.217 102.292 266.75C102.159 267.283 102.059 268.183 101.992 269.45L101.692 277.55L110.092 277.6C112.226 277.6 114.692 277.433 117.492 277.1L117.542 268C117.542 266.933 117.409 266.217 117.142 265.85C116.909 265.483 116.426 265.3 115.692 265.3C115.359 265.3 115.026 265.317 114.692 265.35C114.359 265.383 114.126 265.4 113.992 265.4L113.892 265.2L114.242 263C114.609 263.033 115.276 263.067 116.242 263.1C117.209 263.133 118.176 263.15 119.142 263.15C120.142 263.15 121.292 263.1 122.592 263C123.892 262.867 124.742 262.767 125.142 262.7L124.942 264.95C123.709 265.117 122.876 265.4 122.442 265.8C122.042 266.167 121.809 266.833 121.742 267.8ZM139.088 289.75C139.088 290.717 139.171 291.4 139.338 291.8C139.504 292.167 139.838 292.417 140.338 292.55C140.871 292.683 141.771 292.75 143.038 292.75C145.838 292.75 147.821 292.617 148.988 292.35C150.188 292.083 151.038 291.55 151.538 290.75C152.038 289.95 152.421 288.583 152.688 286.65L154.888 286.4L155.038 286.65C154.938 287.117 154.738 288.2 154.438 289.9C154.138 291.567 153.888 293.283 153.687 295.05L153.438 295.35C152.304 295.317 149.988 295.25 146.488 295.15C142.988 295.05 140.254 295 138.288 295C136.721 295 135.254 295.067 133.888 295.2C132.554 295.333 131.704 295.433 131.338 295.5L131.638 293.2C133.138 293 134.154 292.617 134.688 292.05C135.254 291.45 135.538 290.433 135.538 289L135.588 268C135.588 266.933 135.454 266.217 135.188 265.85C134.954 265.483 134.471 265.3 133.738 265.3C133.404 265.3 133.071 265.317 132.738 265.35C132.404 265.383 132.171 265.4 132.038 265.4L131.938 265.2L132.288 263C132.721 263.033 133.588 263.067 134.888 263.1C136.221 263.133 137.671 263.15 139.238 263.15C143.204 263.15 146.288 263.117 148.488 263.05C150.688 262.95 152.604 262.783 154.238 262.55L154.388 262.85C154.354 263.05 154.254 263.533 154.088 264.3C153.954 265.033 153.804 266.017 153.638 267.25C153.471 268.483 153.338 269.783 153.238 271.15L150.838 271.35C150.838 271.183 150.854 270.9 150.888 270.5C150.921 270.067 150.938 269.633 150.938 269.2C150.938 268.033 150.788 267.233 150.488 266.8C150.188 266.333 149.538 266.033 148.538 265.9C147.538 265.733 145.788 265.65 143.288 265.65C142.121 265.65 141.321 265.683 140.888 265.75C140.454 265.817 140.171 265.983 140.038 266.25C139.904 266.483 139.821 266.933 139.788 267.6L139.388 277.3L144.538 277.35C145.304 277.35 146.388 277.283 147.788 277.15C149.221 276.983 150.171 276.867 150.638 276.8L150.838 277.05L150.138 280C149.671 279.967 148.754 279.933 147.388 279.9C146.054 279.867 144.638 279.85 143.137 279.85C141.904 279.85 140.621 279.967 139.288 280.2C139.154 285 139.088 288.183 139.088 289.75ZM168.629 288.8C168.629 290.067 168.712 290.983 168.879 291.55C169.045 292.083 169.362 292.45 169.829 292.65C170.295 292.817 171.095 292.9 172.229 292.9L172.329 293.1L171.879 295.2C171.479 295.167 170.679 295.133 169.479 295.1C168.279 295.067 167.029 295.05 165.729 295.05C164.562 295.05 163.529 295.067 162.629 295.1C161.729 295.133 161.129 295.167 160.829 295.2L161.279 292.95C162.345 292.817 163.145 292.633 163.679 292.4C164.212 292.167 164.579 291.8 164.779 291.3C164.979 290.767 165.079 290 165.079 289L165.129 268C165.129 266.933 164.995 266.217 164.729 265.85C164.495 265.483 164.012 265.3 163.279 265.3C162.945 265.3 162.612 265.317 162.279 265.35C161.945 265.383 161.712 265.4 161.579 265.4L161.479 265.2L161.829 263C162.229 263.033 162.979 263.067 164.079 263.1C165.179 263.133 166.279 263.15 167.379 263.15C168.512 263.15 169.695 263.133 170.929 263.1C172.195 263.033 173.062 262.983 173.529 262.95C176.629 262.95 179.079 263.65 180.879 265.05C182.679 266.45 183.579 268.367 183.579 270.8C183.579 272.8 182.929 274.633 181.629 276.3C180.362 277.967 178.562 279.333 176.229 280.4L181.729 289.1C182.695 290.7 183.629 291.817 184.529 292.45C185.462 293.05 186.595 293.35 187.929 293.35L188.129 293.55L187.829 295.25L183.579 295.8C182.745 295.8 181.845 295.383 180.879 294.55C179.945 293.683 179.079 292.517 178.279 291.05L172.929 281.35H168.779L168.629 288.8ZM174.029 279.05C174.029 279.15 174.529 278.933 175.529 278.4C176.529 277.867 177.429 277.05 178.229 275.95C179.029 274.85 179.429 273.433 179.429 271.7C179.429 267.3 176.379 265.1 170.279 265.1C169.945 265.1 169.712 265.183 169.579 265.35C169.479 265.483 169.412 265.783 169.379 266.25C169.079 271.35 168.912 275.45 168.879 278.55L174.029 279.05ZM205.007 295.6C202.007 295.6 199.373 294.967 197.107 293.7C194.84 292.433 193.09 290.65 191.857 288.35C190.657 286.017 190.057 283.283 190.057 280.15C190.057 276.817 190.807 273.817 192.307 271.15C193.807 268.45 195.873 266.35 198.507 264.85C201.173 263.317 204.173 262.55 207.507 262.55C208.74 262.55 209.99 262.65 211.257 262.85C212.557 263.017 213.64 263.2 214.507 263.4C215.407 263.567 215.973 263.683 216.207 263.75L216.407 264.05C216.34 264.25 216.223 264.733 216.057 265.5C215.923 266.267 215.757 267.267 215.557 268.5C215.39 269.733 215.257 271.033 215.157 272.4L212.757 272.6C212.79 272.433 212.823 272.133 212.857 271.7C212.89 271.233 212.907 270.717 212.907 270.15C212.907 267.05 210.457 265.5 205.557 265.5C203.357 265.5 201.423 266.033 199.757 267.1C198.09 268.167 196.807 269.683 195.907 271.65C195.007 273.583 194.557 275.867 194.557 278.5C194.557 281.4 195.023 283.95 195.957 286.15C196.923 288.35 198.273 290.067 200.007 291.3C201.74 292.5 203.74 293.1 206.007 293.1C208.273 293.1 210.09 292.467 211.457 291.2C212.857 289.9 213.873 287.9 214.507 285.2L216.907 285C216.807 285.5 216.59 286.617 216.257 288.35C215.923 290.05 215.69 291.65 215.557 293.15L215.257 293.6C215.257 293.633 214.74 293.833 213.707 294.2C212.707 294.533 211.44 294.85 209.907 295.15C208.407 295.45 206.773 295.6 205.007 295.6ZM230.152 288.8C230.152 290.067 230.235 290.983 230.402 291.55C230.569 292.083 230.885 292.45 231.352 292.65C231.819 292.817 232.619 292.9 233.752 292.9L233.852 293.1L233.402 295.2C233.002 295.167 232.202 295.133 231.002 295.1C229.802 295.067 228.552 295.05 227.252 295.05C226.085 295.05 225.052 295.067 224.152 295.1C223.252 295.133 222.652 295.167 222.352 295.2L222.802 292.95C223.869 292.817 224.669 292.633 225.202 292.4C225.735 292.167 226.102 291.8 226.302 291.3C226.502 290.767 226.602 290 226.602 289L226.652 268C226.652 266.933 226.519 266.217 226.252 265.85C226.019 265.483 225.535 265.3 224.802 265.3C224.469 265.3 224.135 265.317 223.802 265.35C223.469 265.383 223.235 265.4 223.102 265.4L223.002 265.2L223.352 263C223.752 263.033 224.502 263.067 225.602 263.1C226.702 263.133 227.802 263.15 228.902 263.15C230.035 263.15 231.219 263.133 232.452 263.1C233.719 263.033 234.585 262.983 235.052 262.95C238.152 262.95 240.602 263.65 242.402 265.05C244.202 266.45 245.102 268.367 245.102 270.8C245.102 272.8 244.452 274.633 243.152 276.3C241.885 277.967 240.085 279.333 237.752 280.4L243.252 289.1C244.219 290.7 245.152 291.817 246.052 292.45C246.985 293.05 248.119 293.35 249.452 293.35L249.652 293.55L249.352 295.25L245.102 295.8C244.269 295.8 243.369 295.383 242.402 294.55C241.469 293.683 240.602 292.517 239.802 291.05L234.452 281.35H230.302L230.152 288.8ZM235.552 279.05C235.552 279.15 236.052 278.933 237.052 278.4C238.052 277.867 238.952 277.05 239.752 275.95C240.552 274.85 240.952 273.433 240.952 271.7C240.952 267.3 237.902 265.1 231.802 265.1C231.469 265.1 231.235 265.183 231.102 265.35C231.002 265.483 230.935 265.783 230.902 266.25C230.602 271.35 230.435 275.45 230.402 278.55L235.552 279.05ZM274.718 289.35C275.118 290.583 275.652 291.45 276.318 291.95C276.985 292.45 278.052 292.767 279.518 292.9L279.618 293.1L279.268 295.15C278.868 295.15 278.135 295.117 277.068 295.05C276.035 295.017 275.002 295 273.968 295C272.368 295 270.818 295.067 269.318 295.2C267.852 295.333 266.918 295.433 266.518 295.5L266.368 295.15L266.568 293.2C268.268 293.067 269.435 292.867 270.068 292.6C270.702 292.333 271.018 291.9 271.018 291.3C271.018 290.633 270.868 289.833 270.568 288.9L268.918 283.45C268.118 283.417 266.385 283.4 263.718 283.4C262.118 283.4 260.302 283.533 258.268 283.8L256.418 289C256.118 289.9 255.968 290.55 255.968 290.95C255.968 291.683 256.202 292.217 256.668 292.55C257.135 292.85 257.902 293 258.968 293H261.818L261.918 293.2L261.618 295.35C261.218 295.317 260.302 295.25 258.868 295.15C257.435 295.05 256.035 295 254.668 295C253.435 295 252.285 295.017 251.218 295.05C250.185 295.083 249.502 295.117 249.168 295.15L249.568 292.8C250.502 292.7 251.252 292.383 251.818 291.85C252.385 291.283 252.935 290.317 253.468 288.95L263.218 263.4L266.368 262.55H266.768C266.968 263.35 267.468 265.2 268.268 268.1C269.102 271 270.102 274.433 271.268 278.4C272.468 282.367 273.618 286.017 274.718 289.35ZM263.568 281.35C264.735 281.35 266.285 281.267 268.218 281.1L264.268 268H263.918L259.168 281.35H263.568ZM289.625 289.4C289.625 290.767 289.775 291.683 290.075 292.15C290.375 292.583 290.958 292.8 291.825 292.8C292.491 292.8 293.175 292.783 293.875 292.75C294.608 292.683 295.108 292.65 295.375 292.65L295.475 292.85L295.025 295.2C294.491 295.167 293.491 295.117 292.025 295.05C290.591 295.017 289.108 295 287.575 295C286.541 295 285.425 295.083 284.225 295.25C283.025 295.417 282.241 295.533 281.875 295.6L282.175 293.3C283.708 293 284.741 292.567 285.275 292C285.808 291.4 286.075 290.4 286.075 289L286.125 268C286.125 266.933 285.991 266.217 285.725 265.85C285.491 265.483 285.008 265.3 284.275 265.3C283.941 265.3 283.608 265.317 283.275 265.35C282.941 265.383 282.708 265.4 282.575 265.4L282.475 265.2L282.825 263C283.258 263.033 284.125 263.067 285.425 263.1C286.758 263.133 288.208 263.15 289.775 263.15C296.341 263.15 301.025 262.95 303.825 262.55L303.975 262.85C303.941 263.05 303.841 263.517 303.675 264.25C303.541 264.983 303.391 266 303.225 267.3C303.058 268.6 302.925 269.933 302.825 271.3L300.425 271.5C300.425 271.333 300.441 271.017 300.475 270.55C300.508 270.083 300.525 269.633 300.525 269.2C300.525 268.033 300.375 267.233 300.075 266.8C299.808 266.333 299.241 266.033 298.375 265.9C297.508 265.733 295.991 265.65 293.825 265.65C292.658 265.65 291.858 265.683 291.425 265.75C290.991 265.817 290.708 265.983 290.575 266.25C290.441 266.483 290.358 266.933 290.325 267.6L289.925 278.15L295.075 278.2C295.708 278.2 296.641 278.133 297.875 278C299.108 277.833 299.925 277.717 300.325 277.65L300.525 277.9L299.825 280.9C299.391 280.867 298.575 280.833 297.375 280.8C296.208 280.767 294.975 280.75 293.675 280.75C292.441 280.75 291.158 280.867 289.825 281.1L289.625 289.4ZM316.211 265.1C313.344 265.233 311.411 265.417 310.411 265.65C309.411 265.883 308.727 266.367 308.361 267.1C307.994 267.833 307.661 269.267 307.361 271.4L305.011 271.6C305.077 271.1 305.194 269.983 305.361 268.25C305.561 266.483 305.694 264.717 305.761 262.95L306.211 262.55L310.361 263.1H325.861L330.111 262.55L330.561 262.95C330.627 264.717 330.744 266.45 330.911 268.15C331.111 269.85 331.244 270.933 331.311 271.4L328.961 271.6C328.594 269.4 328.227 267.917 327.861 267.15C327.494 266.383 326.844 265.883 325.911 265.65C324.977 265.417 323.177 265.233 320.511 265.1C320.311 267.1 320.127 270.633 319.961 275.7C319.794 280.767 319.711 285.333 319.711 289.4C319.711 290.633 319.927 291.517 320.361 292.05C320.794 292.55 321.527 292.8 322.561 292.8C323.294 292.8 323.894 292.783 324.361 292.75C324.861 292.717 325.177 292.683 325.311 292.65L325.461 292.85L325.011 295.15C324.477 295.15 323.477 295.117 322.011 295.05C320.544 295.017 319.094 295 317.661 295C316.261 295 314.894 295.017 313.561 295.05C312.227 295.117 311.311 295.167 310.811 295.2L311.211 293.05C312.877 292.917 314.027 292.717 314.661 292.45C315.294 292.15 315.711 291.633 315.911 290.9C316.111 290.133 316.211 288.8 316.211 286.9V265.1Z" fill="white"/>
</g>
<defs>
<filter id="filter0_d_148_19" x="0.0999756" y="262.55" width="335.211" height="41.25" filterUnits="userSpaceOnUse" color-interpolation-filters="sRGB">
<feFlood flood-opacity="0" result="BackgroundImageFix"/>
<feColorMatrix in="SourceAlpha" type="matrix" values="0 0 0 0 0 0 0 0 0 0 0 0 0 0 0 0 0 0 127 0" result="hardAlpha"/>
<feOffset dy="4"/>
<feGaussianBlur stdDeviation="2"/>
<feComposite in2="hardAlpha" operator="out"/>
<feColorMatrix type="matrix" values="0 0 0 0 0 0 0 0 0 0 0 0 0 0 0 0 0 0 0.25 0"/>
<feBlend mode="normal" in2="BackgroundImageFix" result="effect1_dropShadow_148_19"/>
<feBlend mode="normal" in="SourceGraphic" in2="effect1_dropShadow_148_19" result="shape"/>
</filter>
</defs>
</svg>
