<svg width="693" height="290" viewBox="0 0 693 290" fill="none" xmlns="http://www.w3.org/2000/svg">
<path d="M52.217 114.375V99.0362C52.217 96.934 51.8072 94.9565 50.9877 93.1037C50.2039 91.2152 49.1171 89.5762 47.7275 88.1866C46.3379 86.797 44.6989 85.7103 42.8105 84.9264C40.9577 84.1069 38.9801 83.6971 36.8779 83.6971C34.7757 83.6971 32.7804 84.1069 30.8919 84.9264C29.0391 85.7103 27.4179 86.797 26.0283 88.1866C24.6387 89.5762 23.5342 91.2152 22.7147 93.1037C21.9308 94.9565 21.5388 96.934 21.5388 99.0362V114.375H52.217ZM67.5561 145H52.217V129.661H21.5388V145H6.25321V99.0362C6.25321 94.7961 7.05491 90.8233 8.65829 87.1177C10.2617 83.3765 12.4352 80.1162 15.1787 77.337C17.9579 74.5578 21.2004 72.3665 24.906 70.7631C28.6472 69.1598 32.6379 68.3581 36.8779 68.3581C41.118 68.3581 45.0908 69.1598 48.7964 70.7631C52.5377 72.3665 55.7979 74.5578 58.5771 77.337C61.3563 80.1162 63.5476 83.3765 65.151 87.1177C66.7544 90.8233 67.5561 94.7961 67.5561 99.0362V145ZM133.402 145H80.8642V68.3581H133.402V83.6971H96.2033V99.0362H121.376V114.375H96.2033V129.661H133.402V145ZM176.319 145H161.034V83.6971H137.998V68.3581H199.301V83.6971H176.319V145ZM222.764 145H207.425V68.3581H222.764V99.0362H253.389V68.3581H268.728V145H253.389V114.375H222.764V145ZM335.536 145H282.998V68.3581H335.536V83.6971H298.337V99.0362H323.51V114.375H298.337V129.661H335.536V145ZM361.617 83.6971V114.375H376.956C379.059 114.375 381.036 113.983 382.889 113.199C384.742 112.38 386.363 111.275 387.753 109.886C389.142 108.496 390.229 106.875 391.013 105.022C391.832 103.134 392.242 101.138 392.242 99.0362C392.242 96.934 391.832 94.9565 391.013 93.1037C390.229 91.2152 389.142 89.5762 387.753 88.1866C386.363 86.797 384.742 85.7103 382.889 84.9264C381.036 84.1069 379.059 83.6971 376.956 83.6971H361.617ZM361.617 145H346.278V68.3581H376.956C379.771 68.3581 382.479 68.7322 385.08 69.4804C387.681 70.193 390.104 71.2263 392.349 72.5803C394.629 73.8987 396.696 75.502 398.549 77.3905C400.437 79.2433 402.041 81.3099 403.359 83.5902C404.713 85.8706 405.746 88.3113 406.459 90.9124C407.207 93.5134 407.581 96.2214 407.581 99.0362C407.581 101.673 407.243 104.238 406.566 106.732C405.924 109.227 404.98 111.596 403.733 113.841C402.522 116.086 401.025 118.152 399.244 120.041C397.462 121.929 395.467 123.568 393.258 124.958L401.756 145H385.454L378.774 129.554L361.617 129.661V145ZM191.017 273.143C187.454 276.208 183.463 278.559 179.045 280.198C174.627 281.837 170.048 282.657 165.309 282.657C161.675 282.657 158.165 282.176 154.78 281.214C151.431 280.287 148.278 278.969 145.32 277.259C142.399 275.513 139.726 273.428 137.303 271.006C134.881 268.583 132.796 265.91 131.05 262.989C129.34 260.031 128.004 256.878 127.042 253.529C126.115 250.144 125.652 246.634 125.652 243C125.652 239.365 126.115 235.856 127.042 232.471C128.004 229.086 129.34 225.933 131.05 223.011C132.796 220.053 134.881 217.363 137.303 214.94C139.726 212.518 142.399 210.451 145.32 208.741C148.278 206.995 151.431 205.659 154.78 204.732C158.165 203.77 161.675 203.289 165.309 203.289C170.048 203.289 174.627 204.109 179.045 205.748C183.463 207.351 187.454 209.703 191.017 212.803L182.893 226.164C180.648 223.741 177.994 221.888 174.93 220.606C171.865 219.287 168.659 218.628 165.309 218.628C161.924 218.628 158.753 219.27 155.796 220.552C152.839 221.835 150.255 223.581 148.046 225.79C145.837 227.963 144.091 230.547 142.808 233.54C141.526 236.497 140.884 239.65 140.884 243C140.884 246.349 141.526 249.502 142.808 252.46C144.091 255.381 145.837 257.947 148.046 260.156C150.255 262.365 152.839 264.111 155.796 265.394C158.753 266.676 161.924 267.318 165.309 267.318C168.659 267.318 171.865 266.676 174.93 265.394C177.994 264.075 180.648 262.205 182.893 259.782L191.017 273.143ZM215.282 219.697V250.375H230.621C232.723 250.375 234.7 249.983 236.553 249.199C238.406 248.38 240.027 247.275 241.417 245.886C242.806 244.496 243.893 242.875 244.677 241.022C245.497 239.134 245.906 237.138 245.906 235.036C245.906 232.934 245.497 230.956 244.677 229.104C243.893 227.215 242.806 225.576 241.417 224.187C240.027 222.797 238.406 221.71 236.553 220.926C234.7 220.107 232.723 219.697 230.621 219.697H215.282ZM215.282 281H199.942V204.358H230.621C233.435 204.358 236.143 204.732 238.744 205.48C241.346 206.193 243.768 207.226 246.013 208.58C248.294 209.899 250.36 211.502 252.213 213.39C254.101 215.243 255.705 217.31 257.023 219.59C258.377 221.871 259.41 224.311 260.123 226.912C260.871 229.513 261.245 232.221 261.245 235.036C261.245 237.673 260.907 240.238 260.23 242.732C259.589 245.227 258.644 247.596 257.397 249.841C256.186 252.086 254.689 254.152 252.908 256.041C251.126 257.929 249.131 259.568 246.922 260.958L255.42 281H239.119L232.438 265.554L215.282 265.661V281ZM316.455 250.375V235.036C316.455 232.934 316.046 230.956 315.226 229.104C314.442 227.215 313.355 225.576 311.966 224.187C310.576 222.797 308.937 221.71 307.049 220.926C305.196 220.107 303.218 219.697 301.116 219.697C299.014 219.697 297.019 220.107 295.13 220.926C293.277 221.71 291.656 222.797 290.267 224.187C288.877 225.576 287.773 227.215 286.953 229.104C286.169 230.956 285.777 232.934 285.777 235.036V250.375H316.455ZM331.794 281H316.455V265.661H285.777V281H270.492V235.036C270.492 230.796 271.293 226.823 272.897 223.118C274.5 219.376 276.674 216.116 279.417 213.337C282.196 210.558 285.439 208.367 289.144 206.763C292.886 205.16 296.876 204.358 301.116 204.358C305.356 204.358 309.329 205.16 313.035 206.763C316.776 208.367 320.036 210.558 322.815 213.337C325.595 216.116 327.786 219.376 329.389 223.118C330.993 226.823 331.794 230.796 331.794 235.036V281ZM360.442 281H345.103V204.358H398.763V219.697H360.442V235.036H383.423V250.375H360.442V281ZM438.847 281H423.562V219.697H400.526V204.358H461.829V219.697H438.847V281Z" fill="white"/>
<path d="M639.23 23.1258C638.918 22.9698 638.606 22.8 638.313 22.5935L639.23 23.1258ZM639.23 23.1258C639.294 23.1728 639.355 23.2195 639.417 23.266L639.23 23.1258ZM639.417 23.266C639.635 23.4292 639.851 23.5914 640.062 23.7593L639.417 23.266ZM650.94 16.2714L650.904 16.3222L650.952 16.3616C656.671 21.1183 661.854 26.4437 666.493 32.306C681.121 50.8112 689.511 71.7745 691.53 95.3348C696.46 152.802 657.231 205.812 599.478 217.564C597.11 218.048 594.736 218.474 592.412 218.891C591.489 219.057 590.574 219.221 589.671 219.386L589.624 219.395L589.617 219.443C589.529 220.016 589.451 220.583 589.387 221.148L589.378 221.223H589.42C589.263 222.202 589.273 223.547 589.304 225.462C589.41 232.833 592.566 239.999 597.422 245.453C601.852 250.43 607.177 254.524 612.887 257.919C617.78 260.832 622.964 262.768 628.245 264.436C630.28 265.079 632.331 265.682 634.385 266.286C637.656 267.249 640.937 268.214 644.184 269.348C644.698 269.529 645.299 269.713 645.941 269.911C646.054 269.945 646.168 269.98 646.283 270.016C647.055 270.254 647.873 270.511 648.67 270.803C650.267 271.39 651.759 272.108 652.596 273.069L652.648 273.026L652.596 273.07C653.992 274.668 654.032 276.766 653.214 278.469C652.397 280.173 650.725 281.47 648.709 281.473C642.834 281.482 636.949 281.486 631.065 281.486H575.354H575.051H519.344C515.413 281.486 511.483 281.482 507.556 281.478C505.603 281.477 503.651 281.474 501.7 281.473C499.684 281.47 498.012 280.173 497.194 278.469C496.377 276.766 496.418 274.668 497.813 273.07V273.069C498.65 272.108 500.142 271.388 501.739 270.802C502.535 270.51 503.354 270.251 504.126 270.013C504.25 269.975 504.373 269.938 504.494 269.9C505.127 269.706 505.718 269.525 506.225 269.348C509.472 268.214 512.752 267.249 516.025 266.286C518.078 265.682 520.128 265.079 522.165 264.436C527.445 262.768 532.629 260.832 537.522 257.919C543.227 254.524 548.552 250.43 552.987 245.453C557.627 240.238 560.709 233.459 561.064 226.438L561.064 226.435V226.434C561.059 225.992 561.055 225.552 561.059 225.108C561.082 223.466 561.092 222.246 560.995 221.313L560.994 221.312L560.994 221.309C560.99 221.284 560.987 221.257 560.983 221.229C560.983 221.226 560.982 221.223 560.982 221.223H560.986L560.976 221.147C560.894 220.502 560.751 219.997 560.506 219.59C560.26 219.182 559.914 218.875 559.437 218.619C558.96 218.367 558.351 218.163 557.575 217.961C556.87 217.778 556.023 217.594 555.01 217.375L554.7 217.307C551.86 216.693 549.038 216 546.23 215.261L546.18 215.249L546.154 215.293L542.528 221.627C540.674 224.858 536.552 225.976 533.321 224.126C530.09 222.273 528.972 218.15 530.821 214.919L535.604 206.575L535.61 206.564L535.612 206.553C535.667 206.234 535.74 205.911 535.84 205.579C536.844 202.302 540.346 200.879 544.443 201.916C545.924 202.289 547.405 202.682 548.887 203.076C553.37 204.268 557.867 205.465 562.438 206.089C588.446 209.663 612.546 204.091 634.179 189.279C658.446 172.668 673.673 149.62 677.866 120.532C683.487 81.5002 671.169 48.7782 640.104 23.7068C639.892 23.5385 639.674 23.3753 639.458 23.2122C639.396 23.1655 639.334 23.1189 639.271 23.0721L639.267 23.0685L639.261 23.0657C638.95 22.9102 638.641 22.7422 638.352 22.5384C637.178 21.7203 636.352 20.6023 635.888 19.3571V19.3551L635.886 19.3533C635.215 17.8379 635.211 16.2052 635.9 14.6342L635.901 14.6326V14.631C636.098 14.1166 636.348 13.6168 636.675 13.1493L643.127 3.8869C645.255 0.833036 649.462 0.0831306 652.517 2.20998C655.57 4.33681 656.325 8.54507 654.194 11.5989L650.94 16.2714Z" fill="white"/>
<path d="M639.23 23.1258C638.918 22.9698 638.606 22.8 638.313 22.5935L639.23 23.1258ZM639.23 23.1258C639.294 23.1728 639.355 23.2195 639.417 23.266M639.23 23.1258L639.417 23.266M639.417 23.266C639.635 23.4292 639.851 23.5914 640.062 23.7593L639.417 23.266ZM599.478 217.564C657.231 205.812 696.46 152.802 691.53 95.3348C689.511 71.7745 681.121 50.8112 666.493 32.306C661.854 26.4437 656.671 21.1183 650.952 16.3616L650.904 16.3222L650.94 16.2714L654.194 11.5989M599.478 217.564L599.492 217.63M599.478 217.564C597.11 218.048 594.736 218.474 592.412 218.891C591.489 219.057 590.574 219.221 589.671 219.386L589.624 219.395L589.617 219.443C589.529 220.016 589.451 220.583 589.387 221.148L589.378 221.223H589.42C589.263 222.202 589.273 223.547 589.304 225.462C589.41 232.833 592.566 239.999 597.422 245.453C601.852 250.43 607.177 254.524 612.887 257.919C617.78 260.832 622.964 262.768 628.245 264.436C630.28 265.079 632.331 265.682 634.385 266.286C637.656 267.249 640.937 268.214 644.184 269.348C644.698 269.529 645.299 269.713 645.941 269.911C646.054 269.945 646.168 269.98 646.283 270.016C647.055 270.254 647.873 270.511 648.67 270.803C650.267 271.39 651.759 272.108 652.596 273.069L652.648 273.026L652.596 273.07C653.992 274.668 654.032 276.766 653.214 278.469C652.397 280.173 650.725 281.47 648.709 281.473C642.834 281.482 636.949 281.486 631.065 281.486H575.354H575.051H519.344C515.413 281.486 511.483 281.482 507.556 281.478C505.603 281.477 503.651 281.474 501.7 281.473C499.684 281.47 498.012 280.173 497.194 278.469C496.377 276.766 496.418 274.668 497.813 273.07V273.069C498.65 272.108 500.142 271.388 501.739 270.802C502.535 270.51 503.354 270.251 504.126 270.013C504.25 269.975 504.373 269.938 504.494 269.9C505.127 269.706 505.718 269.525 506.225 269.348M506.225 269.348L506.203 269.285M506.225 269.348C509.472 268.214 512.752 267.249 516.025 266.286C518.078 265.682 520.128 265.079 522.165 264.436C527.445 262.768 532.629 260.832 537.522 257.919C543.227 254.524 548.552 250.43 552.987 245.453M552.987 245.453L552.937 245.408M552.987 245.453C557.627 240.238 560.709 233.459 561.064 226.438L561.064 226.435V226.434C561.059 225.992 561.055 225.552 561.059 225.108C561.082 223.466 561.092 222.246 560.995 221.313L560.994 221.312L560.994 221.309C560.99 221.284 560.987 221.257 560.983 221.229C560.983 221.226 560.982 221.223 560.982 221.223H560.986L560.976 221.147C560.894 220.502 560.751 219.997 560.506 219.59C560.26 219.182 559.914 218.875 559.437 218.619C558.96 218.367 558.351 218.163 557.575 217.961C556.87 217.778 556.023 217.594 555.01 217.375L554.7 217.307C551.86 216.693 549.038 216 546.23 215.261L546.18 215.249L546.154 215.293L542.528 221.627C540.674 224.858 536.552 225.976 533.321 224.126C530.09 222.273 528.972 218.15 530.821 214.919L535.604 206.575L535.61 206.564L535.612 206.553C535.667 206.234 535.74 205.911 535.84 205.579C536.844 202.302 540.346 200.879 544.443 201.916C545.924 202.289 547.405 202.682 548.887 203.076C553.37 204.268 557.867 205.465 562.438 206.089C588.446 209.663 612.546 204.091 634.179 189.279C658.446 172.668 673.673 149.62 677.866 120.532C683.487 81.5002 671.169 48.7782 640.104 23.7068C639.892 23.5385 639.674 23.3753 639.458 23.2122C639.396 23.1655 639.334 23.1189 639.271 23.0721L639.267 23.0685L639.261 23.0657C638.95 22.9102 638.641 22.7422 638.352 22.5384C637.178 21.7203 636.352 20.6023 635.888 19.3571V19.3551L635.886 19.3533C635.215 17.8379 635.211 16.2052 635.9 14.6342L635.901 14.6326V14.631C636.098 14.1166 636.348 13.6168 636.675 13.1493M636.675 13.1493L636.62 13.1108M636.675 13.1493L643.127 3.8869C645.255 0.833036 649.462 0.0831306 652.517 2.20998C655.57 4.33681 656.325 8.54507 654.194 11.5989M654.194 11.5989L654.249 11.6374" stroke="#007DAE" stroke-width="0.134563"/>
<path d="M489.066 153.321C525.025 207.126 610.286 211.389 646.522 153.838C652.917 143.181 657.18 132.523 659.311 119.733C659.311 111.207 659.311 102.681 659.311 94.1551C659.311 87.7606 655.048 79.2345 652.917 72.8399C642.259 42.9985 614.549 25.9463 582.576 21.6833C571.919 19.5517 561.261 21.6833 550.603 25.9463C542.077 28.0779 535.683 34.4725 527.157 38.7355C518.631 45.13 512.236 53.6562 505.841 64.3137C486.658 102.681 503.71 151.707 546.34 166.627C556.998 170.89 567.655 168.759 578.313 168.759C591.102 166.627 603.891 160.233 614.549 151.707C633.732 134.654 640.128 104.813 629.469 81.366C620.943 66.4453 608.154 55.7877 593.234 49.3931C586.839 47.2616 580.445 47.2616 574.05 47.2616C550.603 49.3931 529.288 64.3137 525.025 89.892C520.762 113.339 537.814 136.785 561.261 143.181C569.787 143.181 576.182 145.312 584.708 141.049C593.234 136.785 601.76 130.391 606.023 121.865C595.365 143.181 567.655 149.575 546.34 136.785C537.814 130.391 531.42 123.997 527.157 113.339C525.025 102.681 525.025 89.892 529.288 79.2345C535.683 68.5768 544.209 60.0508 554.866 53.6562C578.313 42.9985 608.154 49.3931 623.075 72.8399C631.601 87.7606 633.732 102.681 631.601 119.733C623.075 160.233 576.182 179.416 539.946 162.364C527.157 155.97 518.631 145.312 510.104 134.654C495.184 111.207 495.184 79.2345 514.367 55.7877C525.025 45.13 533.551 32.3409 548.472 28.0779C559.129 23.8148 569.787 21.6833 582.576 23.8148C599.628 25.9463 616.68 30.2094 629.469 42.9985C661.443 70.7083 665.706 113.339 646.522 149.575C633.732 173.021 610.286 187.942 584.708 192.205C552.735 196.468 522.893 185.81 501.578 164.496C488.789 149.575 480.263 132.523 476 113.339C486.658 170.89 550.603 211.389 606.023 185.81C614.549 181.547 620.943 175.153 629.469 168.759C640.128 160.233 646.522 147.444 652.917 134.654C659.311 117.602 659.311 100.55 655.048 83.4975C650.785 68.5768 642.259 53.6562 629.469 42.9985C599.628 17.4203 559.129 17.4203 527.157 40.8671C518.631 49.3931 512.236 57.9192 507.973 68.5768C505.841 77.1029 503.71 83.4975 501.578 92.0236C497.315 115.47 510.104 132.523 522.893 149.575C529.288 155.97 537.814 158.101 544.209 162.364C554.866 168.759 565.524 168.759 576.182 166.627C593.234 164.496 608.154 155.97 618.812 143.181C623.075 136.785 625.206 130.391 629.469 123.997C635.865 109.076 633.732 89.892 623.075 74.9714C614.549 66.4454 606.023 57.9192 595.365 53.6562C563.393 40.8671 522.893 66.4454 527.157 102.681C529.288 115.47 535.683 126.128 546.34 134.654C561.261 145.312 582.576 143.181 595.365 130.391C580.445 145.312 556.998 143.181 542.077 130.391C529.288 115.47 525.025 96.2866 533.551 77.1029C535.683 70.7083 542.077 64.3137 546.34 60.0508C552.735 57.9192 559.129 51.5246 565.524 51.5246C578.313 51.5246 588.971 51.5246 599.628 55.7877C610.286 60.0508 618.812 70.7083 625.206 81.366C637.996 111.207 625.206 149.575 593.234 160.233C576.182 166.627 559.129 166.627 542.077 160.233C505.841 143.181 493.052 96.2866 512.236 62.1823C516.499 53.6562 522.893 49.3931 529.288 42.9985C535.683 38.7354 542.077 32.3409 550.603 30.2094C574.05 21.6833 595.365 25.9463 616.68 36.604C631.601 45.13 642.259 60.0508 648.654 74.9714C659.311 98.4182 657.18 123.997 646.522 145.312C635.865 166.627 616.68 181.547 593.234 187.942C556.998 198.599 518.631 185.81 495.184 153.838C484.526 138.916 480.263 123.997 478.132 106.944C478.132 98.4182 478.132 87.7606 478.132 79.2345C467.474 138.916 518.631 200.731 582.576 190.073C591.102 187.942 599.628 185.81 608.154 181.547C640.128 164.496 659.311 132.523 655.048 96.2866C652.917 85.6291 650.785 74.9714 644.391 66.4454C640.128 60.0508 635.865 51.5246 629.469 47.2616C620.943 40.8671 610.286 34.4725 601.76 30.2094C588.971 25.9463 574.05 25.9463 559.129 28.0779C542.077 32.3409 531.42 42.9985 518.631 53.6562C505.841 68.5768 501.578 87.7606 503.71 106.944C507.973 136.785 531.42 160.233 561.261 164.496C576.182 166.627 588.971 162.364 601.76 155.97C620.943 145.312 629.469 123.997 629.469 102.681C627.338 66.4454 588.971 40.8671 554.866 57.9192C546.34 62.1823 539.946 68.5768 535.683 74.9714C531.42 85.6291 529.288 96.2866 531.42 109.076C533.551 119.733 539.946 126.128 548.472 132.523C559.129 141.049 571.919 141.049 584.708 136.785C567.655 143.181 548.472 136.785 537.814 121.865C531.42 111.207 529.288 96.2866 533.551 83.4975C535.683 74.9714 542.077 70.7083 546.34 64.3137C556.998 55.7877 569.787 51.5246 584.708 53.6562C595.365 55.7877 603.891 62.1823 612.417 68.5768C616.68 72.8399 620.943 77.1029 623.075 83.4975C631.601 102.681 627.338 126.128 614.549 143.181C595.365 166.627 561.261 170.89 535.683 153.838C514.367 138.916 501.578 117.602 505.841 92.0236C507.973 83.4975 510.104 77.1029 512.236 68.5768C531.42 28.0779 582.576 17.4203 618.812 40.8671C629.469 47.2616 635.865 57.9192 642.259 66.4454C650.785 81.366 652.917 96.2866 652.917 113.339C650.785 136.785 637.996 158.101 618.812 173.021C606.023 179.416 595.365 185.81 580.445 187.942C569.787 190.073 556.998 187.942 546.34 185.81C533.551 181.547 520.762 175.153 510.104 166.627C505.841 160.233 499.447 155.97 495.184 149.575C473.868 117.602 476 79.2345 495.184 47.2616C467.474 89.892 478.132 149.575 522.893 175.153C533.551 181.547 544.209 187.942 556.998 187.942C571.919 187.942 586.839 187.942 601.76 181.547C610.286 177.284 616.68 173.021 625.206 166.627C635.865 158.101 640.128 147.444 646.522 136.785C650.785 126.128 650.785 115.47 652.917 104.813C652.917 92.0236 648.654 79.2345 642.259 66.4454C633.732 51.5246 620.943 40.8671 606.023 34.4725C593.234 28.0779 578.313 28.0779 565.524 30.2094C546.34 32.3409 531.42 42.9985 518.631 57.9192C490.921 94.1551 507.973 147.444 550.603 160.233C574.05 166.627 599.628 160.233 614.549 141.049C616.68 136.785 620.943 130.391 623.075 126.128C637.996 89.892 606.023 45.13 565.524 55.7877C554.866 60.0508 544.209 66.4454 537.814 77.1029C531.42 87.7606 531.42 100.55 535.683 113.339C542.077 126.128 552.735 134.654 567.655 136.785C548.472 134.654 531.42 117.602 533.551 98.4182C535.683 83.4975 539.946 68.5768 554.866 62.1823C563.393 57.9192 571.919 55.7877 580.445 55.7877C603.891 57.9192 620.943 77.1029 625.206 100.55C627.338 117.602 620.943 136.785 606.023 147.444C597.497 153.838 586.839 158.101 576.182 160.233C561.261 162.364 548.472 158.101 535.683 149.575C525.025 143.181 516.499 134.654 512.236 121.865C507.973 113.339 505.841 102.681 507.973 92.0236C510.104 83.4975 512.236 77.1029 514.367 68.5768C516.499 60.0508 525.025 55.7877 529.288 49.3931C535.683 42.9985 542.077 38.7355 550.603 36.604C593.234 19.5517 646.522 49.3931 648.654 96.2866C648.654 109.076 650.785 123.997 644.391 136.785C629.469 168.759 595.365 187.942 561.261 185.81C535.683 183.679 514.367 170.89 499.447 151.707C480.263 123.997 476 89.892 490.921 60.0508C501.578 42.9985 512.236 25.9463 531.42 17.4203C493.052 38.7355 473.868 85.6291 488.789 128.259C495.184 143.181 503.71 155.97 514.367 164.496C520.762 168.759 525.025 175.153 531.42 177.284C546.34 181.547 561.261 187.942 576.182 185.81C586.839 183.679 595.365 181.547 606.023 177.284C618.812 170.89 627.338 162.364 635.865 151.707C640.128 145.312 644.391 136.785 646.522 130.391C655.048 100.55 648.654 70.7083 623.075 49.3931C616.68 45.13 610.286 40.8671 603.891 36.604C578.313 25.9463 548.472 30.2094 529.288 49.3931C522.893 57.9192 516.499 66.4454 512.236 74.9714C503.71 100.55 510.104 126.128 529.288 145.312C539.946 153.838 554.866 158.101 567.655 160.233C586.839 160.233 601.76 151.707 614.549 136.785C623.075 123.997 625.206 111.207 623.075 96.2866C618.812 79.2345 608.154 66.4454 593.234 60.0508C582.576 55.7877 569.787 57.9192 559.129 62.1823C533.551 72.8399 527.157 109.076 548.472 128.259C529.288 109.076 533.551 77.1029 556.998 64.3137C565.524 60.0508 574.05 60.0508 582.576 60.0508C586.839 60.0508 593.234 62.1823 597.497 64.3137C625.206 79.2345 629.469 119.733 608.154 141.049C603.891 145.312 599.628 149.575 595.365 151.707C582.576 158.101 567.655 160.233 552.735 155.97C527.157 147.444 510.104 123.997 510.104 96.2866C510.104 87.7605 512.236 81.366 516.499 72.8399C522.893 60.0508 531.42 51.5246 542.077 42.9985C576.182 21.6833 623.075 36.604 640.128 72.8399C642.259 81.366 644.391 87.7605 646.522 96.2866C648.654 111.207 644.391 126.128 640.128 138.916C623.075 175.153 576.182 192.205 537.814 177.284C531.42 175.153 525.025 168.759 518.631 166.627C507.973 160.233 499.447 147.444 493.052 134.654C467.474 81.366 505.841 17.4203 563.393 8.89414C574.05 8.89414 582.576 8.89414 593.234 8.89414C533.551 0.368042 476 49.3931 486.658 113.339C488.789 126.128 493.052 134.654 499.447 145.312C507.973 155.97 516.499 166.627 529.288 173.021C537.814 177.284 546.34 179.416 556.998 181.547C574.05 183.679 588.971 181.547 603.891 175.153C614.549 170.89 620.943 162.364 629.469 155.97C646.522 134.654 652.917 104.813 642.259 79.2345C637.996 72.8399 635.865 64.3137 629.469 57.9192C608.154 36.604 578.313 25.9463 550.603 38.7355C529.288 49.3931 516.499 68.5768 512.236 92.0236C510.104 100.55 512.236 109.076 514.367 117.602C518.631 130.391 527.157 138.916 537.814 147.444C544.209 151.707 548.472 153.838 554.866 155.97C584.708 162.364 616.68 143.181 620.943 111.207C623.075 96.2866 614.549 83.4975 606.023 72.8399C586.839 53.6562 550.603 57.9192 539.946 83.4975C537.814 89.892 535.683 96.2866 537.814 102.681C535.683 81.366 552.735 64.3137 571.919 62.1823C593.234 60.0508 612.417 74.9714 618.812 94.1551C620.943 109.076 618.812 123.997 608.154 136.785C601.76 143.181 595.365 147.444 586.839 151.707C580.445 153.838 576.182 155.97 569.787 155.97C537.814 155.97 507.973 126.128 514.367 89.892C516.499 81.366 518.631 74.9714 520.762 68.5768C539.946 34.4725 586.839 25.9463 616.68 49.3931C625.206 55.7877 633.732 64.3137 637.996 74.9714C644.391 87.7605 646.522 100.55 644.391 115.47C640.128 132.523 633.732 147.444 620.943 160.233C595.365 181.547 563.393 185.81 533.551 173.021C510.104 160.233 493.052 138.916 488.789 111.207C486.658 92.0236 488.789 74.9714 497.315 57.9192C505.841 42.9985 516.499 30.2094 531.42 23.8148C539.946 21.6833 546.34 15.2888 554.866 13.1572C595.365 4.6311 637.996 21.6833 657.18 57.9192C627.338 4.63108 546.34 -8.15807 505.841 45.13C499.447 53.6562 497.315 60.0508 493.052 68.5768C482.395 94.1551 486.658 119.733 501.578 143.181C507.973 149.575 512.236 155.97 518.631 162.364C529.288 170.89 539.946 177.284 552.735 179.416C569.787 181.547 586.839 179.416 601.76 173.021C618.812 164.496 631.601 149.575 640.128 132.523C644.391 121.865 644.391 111.207 644.391 100.55C642.259 83.4975 635.865 70.7083 625.206 57.9192C616.68 51.5246 608.154 47.2616 599.628 40.8671C593.234 36.604 584.708 38.7355 578.313 38.7355C550.603 36.604 522.893 53.6562 516.499 81.366C510.104 104.813 516.499 128.259 537.814 143.181C544.209 147.444 550.603 151.707 559.129 153.838C580.445 158.101 597.497 149.575 610.286 132.523C612.417 128.259 614.549 123.997 616.68 117.602C623.075 87.7605 599.628 57.9192 567.655 64.3137C559.129 66.4454 554.866 70.7083 548.472 74.9714C563.393 62.1823 588.971 57.9192 603.891 74.9714C612.417 85.6291 618.812 98.4182 616.68 111.207C614.549 121.865 610.286 132.523 601.76 141.049C588.971 151.707 574.05 153.838 559.129 151.707C552.735 151.707 546.34 149.575 542.077 145.312C537.814 141.049 531.42 138.916 527.157 132.523C514.367 117.602 512.236 96.2866 518.631 79.2345C522.893 72.8399 522.893 66.4454 529.288 60.0508C544.209 45.13 561.261 36.604 582.576 38.7355C595.365 40.8671 608.154 45.13 618.812 53.6562C629.469 66.4454 640.128 79.2345 642.259 96.2866C646.522 134.654 620.943 170.89 582.576 177.284C567.655 179.416 552.735 179.416 539.946 173.021C501.578 155.97 482.395 115.47 493.052 74.9714C497.315 62.1823 503.71 51.5246 512.236 40.8671C520.762 32.3409 529.288 25.9463 539.946 21.6833C552.735 17.4203 567.655 13.1572 582.576 13.1572C612.417 17.4203 640.128 34.4725 655.048 60.0508C669.969 85.6291 669.969 115.47 661.443 141.049C680.626 89.892 652.917 25.9463 595.365 15.2888C586.839 15.2888 580.445 13.1572 571.919 13.1572C552.735 15.2888 533.551 21.6833 518.631 34.4725C499.447 53.6562 486.658 77.1029 490.921 104.813C495.184 117.602 495.184 130.391 503.71 143.181C514.367 158.101 527.157 166.627 542.077 173.021C552.735 177.284 563.393 179.416 576.182 177.284C584.708 175.153 591.102 173.021 599.628 170.89C618.812 162.364 635.865 145.312 637.996 123.997C640.128 115.47 644.391 109.076 642.259 100.55C637.996 83.4975 633.732 70.7083 623.075 57.9192C597.497 32.3409 546.34 32.3409 527.157 66.4454C520.762 77.1029 514.367 87.7606 516.499 100.55C520.762 128.259 542.077 153.838 571.919 151.707C601.76 149.575 623.075 117.602 612.417 89.892C606.023 77.1029 595.365 68.5768 580.445 64.3137C599.628 68.5768 612.417 83.4975 614.549 102.681C616.68 119.733 606.023 132.523 595.365 143.181C591.102 147.444 582.576 147.444 576.182 149.575C565.524 151.707 554.866 149.575 546.34 145.312C533.551 138.916 525.025 128.259 520.762 115.47C514.367 96.2866 520.762 81.366 529.288 64.3137C533.551 55.7877 542.077 51.5246 550.603 47.2616C559.129 42.9985 567.655 42.9985 576.182 40.8671C584.708 40.8671 595.365 42.9985 603.891 47.2616C618.812 53.6562 629.469 66.4453 635.865 81.366C640.128 92.0236 640.128 102.681 640.128 113.339C640.128 128.259 631.601 138.916 623.075 151.707C599.628 179.416 561.261 183.679 529.288 164.496C514.367 153.838 503.71 141.049 497.315 123.997C488.789 100.55 493.052 77.1029 505.841 55.7877C510.104 49.3931 514.367 42.9985 520.762 36.604C542.077 19.5517 567.655 15.2888 593.234 17.4203C612.417 21.6833 627.338 32.3409 642.259 45.13C680.626 85.6291 669.969 149.575 625.206 183.679C616.68 190.073 608.154 187.942 601.76 196.468C661.443 173.021 689.152 94.1551 642.259 45.13C635.865 38.7354 629.469 32.3409 620.943 28.0779C610.286 23.8148 599.628 19.5517 588.971 17.4203C576.182 15.2888 563.393 17.4203 550.603 19.5517C537.814 23.8148 525.025 30.2094 516.499 40.8671C501.578 57.9192 493.052 79.2345 493.052 100.55C495.184 111.207 497.315 123.997 501.578 134.654C505.841 145.312 514.367 151.707 522.893 160.233C533.551 168.759 546.34 173.021 561.261 175.153C571.919 177.284 582.576 175.153 593.234 170.89C610.286 162.364 625.206 151.707 633.732 134.654C644.391 106.944 640.128 74.9714 616.68 55.7877C597.497 40.8671 571.919 36.604 550.603 47.2616C539.946 53.6562 529.288 60.0508 525.025 72.8399C514.367 100.55 520.762 134.654 550.603 145.312C561.261 149.575 569.787 147.444 580.445 147.444C591.102 145.312 597.497 136.785 603.891 130.391C608.154 126.128 610.286 119.733 612.417 115.47C614.549 109.076 612.417 102.681 612.417 96.2866C610.286 92.0236 608.154 85.6291 606.023 81.366C614.549 100.55 614.549 121.865 599.628 136.785C584.708 147.444 563.393 153.838 546.34 143.181C537.814 136.785 531.42 130.391 527.157 121.865C522.893 111.207 518.631 102.681 520.762 92.0236C522.893 81.366 525.025 70.7083 533.551 62.1823C546.34 47.2616 567.655 42.9985 586.839 45.13C616.68 49.3931 637.996 77.1029 637.996 106.944C637.996 119.733 631.601 132.523 625.206 145.312C616.68 158.101 606.023 162.364 593.234 168.759C582.576 173.021 571.919 175.153 559.129 173.021C552.735 173.021 548.472 170.89 542.077 168.759C499.447 151.707 480.263 98.4182 505.841 57.9192C512.236 49.3931 518.631 38.7355 529.288 32.3409C546.34 21.6833 565.524 17.4203 586.839 19.5517C603.891 21.6833 618.812 28.0779 631.601 38.7355C672.1 72.8399 672.1 136.785 633.732 173.021C625.206 179.416 618.812 185.81 608.154 190.073C582.576 200.731 554.866 200.731 529.288 190.073C582.576 213.521 652.917 181.547 661.443 119.733C663.574 100.55 661.443 83.4975 652.917 66.4454C648.654 57.9192 642.259 51.5246 635.865 42.9985C629.469 34.4725 618.812 32.3409 610.286 25.9463C603.891 21.6833 595.365 21.6833 586.839 19.5517C554.866 15.2888 525.025 28.0779 507.973 55.7877C493.052 81.366 490.921 111.207 505.841 136.785C512.236 143.181 516.499 149.575 522.893 155.97C531.42 164.496 542.077 166.627 550.603 170.89C561.261 173.021 571.919 173.021 582.576 170.89C597.497 168.759 608.154 162.364 618.812 151.707C633.732 136.785 640.128 115.47 635.865 94.1551C633.732 87.7606 631.601 81.366 629.469 74.9714C610.286 40.8671 561.261 32.3409 533.551 64.3137C525.025 77.1029 520.762 92.0236 522.893 106.944C527.157 132.523 550.603 147.444 574.05 145.312C593.234 143.181 612.417 126.128 610.286 104.813C612.417 126.128 591.102 143.181 571.919 145.312C554.866 147.444 539.946 138.916 531.42 126.128C525.025 115.47 520.762 104.813 522.893 92.0236C525.025 81.366 529.288 72.8399 535.683 64.3137C544.209 57.9192 552.735 47.2616 565.524 47.2616C580.445 45.13 593.234 47.2616 606.023 53.6562C637.996 72.8399 644.391 119.733 618.812 147.444C612.417 155.97 601.76 162.364 593.234 166.627C582.576 170.89 571.919 170.89 561.261 170.89C554.866 170.89 550.603 168.759 544.209 166.627C499.447 149.575 482.395 89.892 514.367 51.5246C546.34 8.89413 610.286 11.0257 642.259 53.6562C648.654 62.1823 652.917 70.7083 657.18 81.366C665.706 117.602 655.048 153.838 625.206 177.284C588.971 202.862 539.946 202.862 507.555 172.548C493.726 159.646 489.066 153.321 489.066 153.321Z" fill="white"/>
</svg>
