<svg width="640" height="640" viewBox="0 0 640 640" fill="none" xmlns="http://www.w3.org/2000/svg">
<path d="M320 0C142.7 0 0 142.7 0 320C0 497.3 142.7 640 320 640C497.3 640 640 497.3 640 320C640 142.7 497.3 0 320 0ZM260 541.3C260 544 260 545.3 258.7 546.6C257.4 551.9 252 554.6 246.7 551.9C172 527.9 114.7 470.6 90.7 395.9C50.7 269.2 120 134.6 246.7 94.6C248 93.3 250.7 93.3 252 93.3C257.3 94.6 260 98.6 260 104V122.7C260 129.4 257.3 133.4 252 136C197.3 156 153.3 198.7 133.3 254.7C94.7 357.3 148 473.3 252 510.7C256 513.4 260 518.7 260 522.7V541.3ZM341.3 473.3C340 480 336 484 330.7 484H310.7C304 482.7 300 478.7 300 473.3V441.3C256 434.6 234.7 410.6 229.3 377.3V376C229.3 370.7 233.3 366.7 238.6 366.7H261.3C265.3 366.7 269.3 369.4 270.6 374.7C274.6 394.7 286.6 409.4 321.3 409.4C346.6 409.4 365.3 394.7 365.3 373.4C365.3 352.1 353.3 344.1 316 337.4C260 330.7 233.3 313.4 233.3 269.4C233.3 236.1 258.6 209.4 298.6 204.1V173.4C299.9 166.7 303.9 162.7 309.3 162.7H329.3C336 164 340 168 340 173.3V205.3C370.7 208 394.7 230.6 400 260V261.3C400 266.6 396 270.6 390.7 270.6H369.4C365.4 270.6 361.4 267.9 360.1 263.9C353.4 243.9 340.1 235.9 316.1 235.9C289.4 235.9 276.1 247.9 276.1 266.6C276.1 285.3 284.1 295.9 324.1 301.3C380.1 308 408.1 324 408.1 370.6C408.1 406.6 381.4 434.6 341.4 441.3L341.3 473.3ZM393.3 553.3C392 554.6 389.3 554.6 388 554.6C382.7 553.3 380 549.3 380 543.9V525.2C380 518.5 382.7 514.5 388 511.9C442.7 491.9 486.7 449.2 506.7 393.2C545.4 290.5 492 174.5 388 137.2C384 134.5 380 129.2 380 123.9V105.2C380 102.5 380 101.2 381.3 99.9C382.6 94.6 388 91.9 393.3 94.6C466.6 118.6 525.3 175.9 549.3 251.9C589.3 378.7 520 513.3 393.3 553.3Z" fill="#2775CA"/>
</svg>
