<svg width="33" height="34" viewBox="0 0 33 34" fill="none" xmlns="http://www.w3.org/2000/svg">
<path d="M24.1882 3.52428C24.1419 3.50649 24.0957 3.48711 24.0522 3.46355L24.1882 3.52428ZM24.1882 3.52428C24.1976 3.52964 24.2067 3.53497 24.2159 3.54028L24.1882 3.52428ZM24.2159 3.54028C24.2482 3.5589 24.2801 3.5774 24.3114 3.59656L24.2159 3.54028ZM25.9234 2.74228L25.918 2.74807L25.9252 2.75257C26.7726 3.29525 27.5407 3.90282 28.2281 4.57163C30.3958 6.68285 31.639 9.0745 31.9381 11.7624C32.6687 18.3187 26.8556 24.3665 18.2976 25.7073C17.9467 25.7625 17.5948 25.8111 17.2505 25.8587C17.1137 25.8776 16.9781 25.8963 16.8443 25.9152L16.8373 25.9161L16.8362 25.9217C16.8233 25.9871 16.8117 26.0517 16.8022 26.1162L16.8009 26.1248H16.8071C16.7838 26.2364 16.7852 26.3899 16.7899 26.6084C16.8055 27.4493 17.2732 28.2668 17.9928 28.889C18.6493 29.4569 19.4384 29.9239 20.2845 30.3113C21.0095 30.6436 21.7778 30.8645 22.5603 31.0547C22.862 31.1281 23.1659 31.1969 23.4701 31.2658C23.9549 31.3758 24.441 31.4858 24.9222 31.6152C24.9984 31.6358 25.0875 31.6569 25.1826 31.6794C25.1994 31.6833 25.2163 31.6873 25.2333 31.6914C25.3477 31.7186 25.4689 31.7479 25.587 31.7812C25.8237 31.8481 26.0448 31.9301 26.1688 32.0397L26.1764 32.0348L26.1688 32.0399C26.3756 32.2221 26.3816 32.4615 26.2604 32.6558C26.1393 32.8502 25.8915 32.9982 25.5928 32.9985C24.7222 32.9995 23.8502 33 22.9782 33H14.7227H14.6778H6.42284C5.84045 33 5.25806 32.9995 4.67607 32.9991C4.38672 32.9989 4.09746 32.9986 3.80837 32.9985C3.50955 32.9982 3.26185 32.8502 3.14067 32.6558C3.01956 32.4615 3.02558 32.2221 3.2323 32.0399V32.0397C3.35631 31.9301 3.57752 31.848 3.81409 31.7811C3.93212 31.7477 4.0535 31.7183 4.16783 31.6911C4.1862 31.6868 4.2044 31.6825 4.22239 31.6782C4.31611 31.6561 4.40376 31.6354 4.47886 31.6152C4.96007 31.4858 5.44614 31.3758 5.93104 31.2658C6.23527 31.1969 6.53906 31.1281 6.84089 31.0547C7.62334 30.8645 8.39158 30.6436 9.11656 30.3113C9.96196 29.9239 10.7511 29.4569 11.4083 28.889C12.0958 28.2942 12.5526 27.5207 12.6051 26.7197L12.6051 26.7193V26.7192C12.6045 26.6688 12.6038 26.6186 12.6045 26.568C12.6078 26.3807 12.6092 26.2414 12.5949 26.1351L12.5948 26.1349L12.5948 26.1346C12.5942 26.1317 12.5937 26.1286 12.5932 26.1254C12.5931 26.1251 12.5931 26.1248 12.5931 26.1248H12.5936L12.5921 26.116C12.58 26.0425 12.5588 25.9849 12.5224 25.9384C12.486 25.8919 12.4348 25.8569 12.364 25.8277C12.2934 25.7988 12.2031 25.7757 12.0882 25.7526C11.9837 25.7318 11.8582 25.7107 11.708 25.6857L11.6621 25.678C11.2412 25.6079 10.8231 25.5288 10.4069 25.4445L10.3995 25.4431L10.3958 25.4482L9.85845 26.1708C9.58368 26.5394 8.97289 26.667 8.49409 26.4559C8.01527 26.2445 7.8496 25.7741 8.12368 25.4055L8.83239 24.4535L8.83327 24.4523L8.83357 24.4511C8.84169 24.4147 8.85247 24.3779 8.86729 24.3399C9.01614 23.9661 9.53504 23.8037 10.1421 23.9221C10.3617 23.9646 10.581 24.0094 10.8007 24.0544C11.465 24.1904 12.1314 24.3269 12.8087 24.3981C16.6628 24.8059 20.2341 24.1701 23.4396 22.4804C27.0356 20.5852 29.2921 17.9557 29.9134 14.6372C30.7463 10.1841 28.921 6.45091 24.3176 3.59057C24.2863 3.57137 24.254 3.55274 24.2219 3.53414C24.2127 3.52881 24.2035 3.5235 24.1942 3.51816L24.1936 3.51774L24.1928 3.51742C24.1467 3.49969 24.1008 3.48051 24.058 3.45727C23.8841 3.36393 23.7617 3.23639 23.6929 3.09432V3.09409L23.6927 3.09389C23.5932 2.92099 23.5926 2.73473 23.6947 2.55549L23.6949 2.55531V2.55513C23.724 2.49644 23.7611 2.43942 23.8095 2.38609L24.7657 1.32936C25.0809 0.980951 25.7044 0.895396 26.1571 1.13804C26.6095 1.38069 26.7214 1.8608 26.4055 2.20921L25.9234 2.74228Z" fill="black"/>
<path d="M24.1882 3.52428C24.1419 3.50649 24.0957 3.48711 24.0522 3.46355L24.1882 3.52428ZM24.1882 3.52428C24.1976 3.52964 24.2067 3.53497 24.2159 3.54028M24.1882 3.52428L24.2159 3.54028M24.2159 3.54028C24.2482 3.5589 24.2801 3.5774 24.3114 3.59656L24.2159 3.54028ZM18.2976 25.7073C26.8556 24.3665 32.6687 18.3187 31.9381 11.7624C31.639 9.0745 30.3958 6.68285 28.2281 4.57163C27.5407 3.90282 26.7726 3.29525 25.9252 2.75257L25.918 2.74807L25.9234 2.74228L26.4055 2.20921M18.2976 25.7073L18.2995 25.7149M18.2976 25.7073C17.9467 25.7625 17.5948 25.8111 17.2505 25.8587C17.1137 25.8776 16.9781 25.8963 16.8443 25.9152L16.8373 25.9161L16.8362 25.9217C16.8233 25.9871 16.8117 26.0517 16.8022 26.1162L16.8009 26.1248H16.8071C16.7838 26.2364 16.7852 26.3899 16.7899 26.6084C16.8055 27.4493 17.2732 28.2668 17.9928 28.889C18.6493 29.4569 19.4384 29.9239 20.2845 30.3113C21.0095 30.6436 21.7778 30.8645 22.5603 31.0547C22.862 31.1281 23.1659 31.1969 23.4701 31.2658C23.9549 31.3758 24.441 31.4858 24.9222 31.6152C24.9984 31.6358 25.0875 31.6569 25.1826 31.6794C25.1994 31.6833 25.2163 31.6873 25.2333 31.6914C25.3477 31.7186 25.4689 31.7479 25.587 31.7812C25.8237 31.8481 26.0448 31.9301 26.1688 32.0397L26.1764 32.0348L26.1688 32.0399C26.3756 32.2221 26.3816 32.4615 26.2604 32.6558C26.1393 32.8502 25.8915 32.9982 25.5928 32.9985C24.7222 32.9995 23.8502 33 22.9782 33H14.7227H14.6778H6.42284C5.84045 33 5.25806 32.9995 4.67607 32.9991C4.38672 32.9989 4.09746 32.9986 3.80837 32.9985C3.50955 32.9982 3.26185 32.8502 3.14067 32.6558C3.01956 32.4615 3.02558 32.2221 3.2323 32.0399V32.0397C3.35631 31.9301 3.57752 31.848 3.81409 31.7811C3.93212 31.7477 4.0535 31.7183 4.16783 31.6911C4.1862 31.6868 4.2044 31.6825 4.22239 31.6782C4.31611 31.6561 4.40376 31.6354 4.47886 31.6152M4.47886 31.6152L4.47557 31.608M4.47886 31.6152C4.96007 31.4858 5.44614 31.3758 5.93104 31.2658C6.23527 31.1969 6.53906 31.1281 6.84089 31.0547C7.62334 30.8645 8.39158 30.6436 9.11656 30.3113C9.96196 29.9239 10.7511 29.4569 11.4083 28.889M11.4083 28.889L11.4008 28.884M11.4083 28.889C12.0958 28.2942 12.5526 27.5207 12.6051 26.7197L12.6051 26.7193V26.7192C12.6045 26.6688 12.6038 26.6186 12.6045 26.568C12.6078 26.3807 12.6092 26.2414 12.5949 26.1351L12.5948 26.1349L12.5948 26.1346C12.5942 26.1317 12.5937 26.1286 12.5932 26.1254C12.5931 26.1251 12.5931 26.1248 12.5931 26.1248H12.5936L12.5921 26.116C12.58 26.0425 12.5588 25.9849 12.5224 25.9384C12.486 25.8919 12.4348 25.8569 12.364 25.8277C12.2934 25.7988 12.2031 25.7757 12.0882 25.7526C11.9837 25.7318 11.8582 25.7107 11.708 25.6857L11.6621 25.678C11.2412 25.6079 10.8231 25.5288 10.4069 25.4445L10.3995 25.4431L10.3958 25.4482L9.85845 26.1708C9.58368 26.5394 8.97289 26.667 8.49409 26.4559C8.01527 26.2445 7.8496 25.7741 8.12368 25.4055L8.83239 24.4535L8.83327 24.4523L8.83357 24.4511C8.84169 24.4147 8.85247 24.3779 8.86729 24.3399C9.01614 23.9661 9.53504 23.8037 10.1421 23.9221C10.3617 23.9646 10.581 24.0094 10.8007 24.0544C11.465 24.1904 12.1314 24.3269 12.8087 24.3981C16.6628 24.8059 20.2341 24.1701 23.4396 22.4804C27.0356 20.5852 29.2921 17.9557 29.9134 14.6372C30.7463 10.1841 28.921 6.45091 24.3176 3.59057C24.2863 3.57137 24.254 3.55274 24.2219 3.53414C24.2127 3.52881 24.2035 3.5235 24.1942 3.51816L24.1936 3.51774L24.1928 3.51742C24.1467 3.49969 24.1008 3.48051 24.058 3.45727C23.8841 3.36393 23.7617 3.23639 23.6929 3.09432V3.09409L23.6927 3.09389C23.5932 2.92099 23.5926 2.73473 23.6947 2.55549L23.6949 2.55531V2.55513C23.724 2.49644 23.7611 2.43942 23.8095 2.38609M23.8095 2.38609L23.8013 2.38169M23.8095 2.38609L24.7657 1.32936C25.0809 0.980951 25.7044 0.895396 26.1571 1.13804C26.6095 1.38069 26.7214 1.8608 26.4055 2.20921M26.4055 2.20921L26.4137 2.2136" stroke="#007DAE" stroke-width="0.134563"/>
<path d="M1.93621 18.3776C7.26476 24.5161 19.8991 25.0024 25.2688 18.4365C26.2163 17.2206 26.848 16.0047 27.1639 14.5456C27.1639 13.5729 27.1639 12.6001 27.1639 11.6274C27.1639 10.8979 26.5322 9.92515 26.2163 9.19561C24.6371 5.79108 20.5308 3.84562 15.7929 3.35927C14.2136 3.11608 12.6343 3.35927 11.0551 3.84563C9.79161 4.08882 8.84404 4.81836 7.58061 5.30471C6.31718 6.03425 5.3696 7.00698 4.42203 8.22288C1.5793 12.6001 4.10616 18.1933 10.4233 19.8956C12.0026 20.3819 13.5819 20.1387 15.1612 20.1387C17.0564 19.8956 18.9515 19.166 20.5308 18.1933C23.3735 16.2478 24.3212 12.8433 22.7417 10.1683C21.4783 8.46607 19.5832 7.25016 17.3722 6.52062C16.4246 6.27744 15.4771 6.27744 14.5295 6.27744C11.0551 6.52062 7.89646 8.22288 7.26476 11.141C6.63303 13.816 9.15991 16.491 12.6343 17.2206C13.8978 17.2206 14.8454 17.4638 16.1088 16.9775C17.3722 16.491 18.6357 15.7615 19.2674 14.7888C17.6881 17.2206 13.5819 17.9502 10.4233 16.491C9.15991 15.7615 8.21233 15.0319 7.58061 13.816C7.26476 12.6001 7.26476 11.141 7.89646 9.92515C8.84404 8.70924 10.1075 7.73653 11.6868 7.00698C15.1612 5.79108 19.5832 6.52062 21.7942 9.19561C23.0576 10.8979 23.3735 12.6001 23.0576 14.5456C21.7942 19.166 14.8454 21.3546 9.47576 19.4092C7.58061 18.6797 6.31718 17.4638 5.05373 16.2478C2.84273 13.5729 2.84273 9.92515 5.68546 7.25016C7.26476 6.03425 8.52818 4.57517 10.7392 4.08882C12.3185 3.60245 13.8978 3.35927 15.7929 3.60245C18.3198 3.84563 20.8466 4.33199 22.7417 5.79108C27.4797 8.95242 28.1114 13.816 25.2688 17.9502C23.3734 20.6251 19.8991 22.3273 16.1088 22.8137C11.3709 23.3 6.94888 22.0841 3.7903 19.6524C1.89515 17.9502 0.631718 16.0047 0 13.816C1.5793 20.3819 11.0551 25.0024 19.2674 22.0841C20.5308 21.5978 21.4783 20.8683 22.7417 20.1387C24.3212 19.166 25.2688 17.707 26.2163 16.2478C27.1639 14.3024 27.1639 12.357 26.5322 10.4115C25.9005 8.70924 24.6371 7.00698 22.7417 5.79108C18.3198 2.87291 12.3185 2.87291 7.58061 5.5479C6.31718 6.52062 5.3696 7.49334 4.73788 8.70924C4.42203 9.68196 4.10616 10.4115 3.7903 11.3842C3.15858 14.0592 5.05373 16.0047 6.94888 17.9502C7.89646 18.6797 9.15991 18.9229 10.1075 19.4092C11.6868 20.1387 13.2661 20.1387 14.8454 19.8956C17.3722 19.6524 19.5832 18.6797 21.1625 17.2206C21.7942 16.491 22.11 15.7615 22.7417 15.0319C23.6895 13.3297 23.3735 11.141 21.7942 9.43879C20.5308 8.46607 19.2674 7.49333 17.6881 7.00698C12.9502 5.5479 6.94888 8.46607 7.58061 12.6001C7.89646 14.0592 8.84404 15.2751 10.4233 16.2478C12.6343 17.4638 15.7929 17.2206 17.6881 15.7615C15.4771 17.4638 12.0026 17.2206 9.79161 15.7615C7.89646 14.0592 7.26476 11.8706 8.52819 9.68196C8.84404 8.95242 9.79161 8.22288 10.4233 7.73653C11.3709 7.49333 12.3185 6.76379 13.2661 6.76379C15.1612 6.76379 16.7405 6.76379 18.3198 7.25016C19.8991 7.73653 21.1625 8.95242 22.11 10.1683C24.0054 13.5729 22.11 17.9502 17.3722 19.166C14.8454 19.8956 12.3185 19.8956 9.79161 19.166C4.42203 17.2206 2.52688 11.8706 5.3696 7.9797C6.00131 7.00698 6.94888 6.52062 7.89646 5.79108C8.84404 5.30471 9.79161 4.57517 11.0551 4.33199C14.5295 3.35927 17.6881 3.84563 20.8466 5.06153C23.0576 6.03425 24.6371 7.73653 25.5846 9.43879C27.1639 12.1138 26.848 15.0319 25.2688 17.4638C23.6895 19.8956 20.8466 21.5978 17.3722 22.3273C12.0026 23.5432 6.31718 22.0841 2.84273 18.4365C1.26343 16.7341 0.631718 15.0319 0.315858 13.0865C0.315858 12.1138 0.315858 10.8979 0.315858 9.92515C-1.26343 16.7341 6.31718 23.7864 15.7929 22.5705C17.0564 22.3273 18.3198 22.0841 19.5832 21.5978C24.3212 19.6524 27.1639 16.0047 26.5322 11.8706C26.2163 10.6547 25.9005 9.43879 24.9529 8.46607C24.3212 7.73653 23.6895 6.76379 22.7417 6.27744C21.4783 5.5479 19.8991 4.81836 18.6357 4.33199C16.7405 3.84563 14.5295 3.84563 12.3185 4.08882C9.79161 4.57517 8.21233 5.79108 6.31718 7.00698C4.42203 8.70924 3.7903 10.8979 4.10616 13.0865C4.73788 16.491 8.21233 19.166 12.6343 19.6524C14.8454 19.8956 16.7405 19.4092 18.6357 18.6797C21.4783 17.4638 22.7417 15.0319 22.7417 12.6001C22.4259 8.46607 16.7405 5.5479 11.6868 7.49334C10.4233 7.9797 9.47576 8.70924 8.84404 9.43879C8.21233 10.6547 7.89646 11.8706 8.21233 13.3297C8.52818 14.5456 9.47576 15.2751 10.7392 16.0047C12.3185 16.9775 14.2136 16.9775 16.1088 16.491C13.5819 17.2206 10.7392 16.491 9.15991 14.7888C8.21233 13.5729 7.89646 11.8706 8.52819 10.4115C8.84404 9.43879 9.79161 8.95242 10.4233 8.22288C12.0026 7.25016 13.8978 6.76379 16.1088 7.00698C17.6881 7.25016 18.9515 7.9797 20.2149 8.70924C20.8466 9.19561 21.4783 9.68196 21.7942 10.4115C23.0576 12.6001 22.4259 15.2751 20.5308 17.2206C17.6881 19.8956 12.6343 20.3819 8.84404 18.4365C5.68546 16.7341 3.7903 14.3024 4.42203 11.3842C4.73788 10.4115 5.05373 9.68196 5.3696 8.70924C8.21233 4.08882 15.7929 2.87291 21.1625 5.5479C22.7417 6.27744 23.6895 7.49334 24.6371 8.46607C25.9005 10.1683 26.2163 11.8706 26.2163 13.816C25.9005 16.491 24.0054 18.9229 21.1625 20.6251C19.2674 21.3546 17.6881 22.0841 15.4771 22.3273C13.8978 22.5705 12.0026 22.3273 10.4233 22.0841C8.52819 21.5978 6.63303 20.8683 5.05373 19.8956C4.42203 19.166 3.47445 18.6797 2.84273 17.9502C-0.315858 14.3024 0 9.92515 2.84273 6.27744C-1.26343 11.141 0.315858 17.9502 6.94888 20.8683C8.52819 21.5978 10.1075 22.3273 12.0026 22.3273C14.2136 22.3273 16.4246 22.3273 18.6357 21.5978C19.8991 21.1114 20.8466 20.6251 22.11 19.8956C23.6895 18.9229 24.3212 17.707 25.2688 16.491C25.9005 15.2751 25.9005 14.0592 26.2163 12.8433C26.2163 11.3842 25.5846 9.92515 24.6371 8.46607C23.3735 6.76379 21.4783 5.5479 19.2674 4.81836C17.3722 4.08882 15.1612 4.08882 13.2661 4.33199C10.4233 4.57517 8.21233 5.79108 6.31718 7.49334C2.211 11.6274 4.73788 17.707 11.0551 19.166C14.5295 19.8956 18.3198 19.166 20.5308 16.9775C20.8466 16.491 21.4783 15.7615 21.7942 15.2751C24.0054 11.141 19.2674 6.03425 13.2661 7.25016C11.6868 7.73653 10.1075 8.46607 9.15991 9.68196C8.21233 10.8979 8.21233 12.357 8.84404 13.816C9.79161 15.2751 11.3709 16.2478 13.5819 16.491C10.7392 16.2478 8.21233 14.3024 8.52819 12.1138C8.84404 10.4115 9.47576 8.70924 11.6868 7.9797C12.9502 7.49334 14.2136 7.25016 15.4771 7.25016C18.9515 7.49333 21.4783 9.68196 22.11 12.357C22.4259 14.3024 21.4783 16.491 19.2674 17.707C18.0039 18.4365 16.4246 18.9229 14.8454 19.166C12.6343 19.4092 10.7392 18.9229 8.84404 17.9502C7.26476 17.2206 6.00131 16.2478 5.3696 14.7888C4.73788 13.816 4.42203 12.6001 4.73788 11.3842C5.05373 10.4115 5.3696 9.68196 5.68546 8.70924C6.00131 7.73653 7.26476 7.25016 7.89646 6.52062C8.84404 5.79108 9.79161 5.30471 11.0551 5.06153C17.3722 3.11608 25.2688 6.52062 25.5846 11.8706C25.5846 13.3297 25.9005 15.0319 24.9529 16.491C22.7417 20.1387 17.6881 22.3273 12.6343 22.0841C8.84404 21.841 5.68546 20.3819 3.47445 18.1933C0.631718 15.0319 0 11.141 2.211 7.73653C3.7903 5.79108 5.3696 3.84563 8.21233 2.87291C2.52688 5.30471 -0.315858 10.6547 1.89515 15.5183C2.84273 17.2206 4.10616 18.6797 5.68546 19.6524C6.63303 20.1387 7.26476 20.8683 8.21233 21.1114C10.4233 21.5978 12.6343 22.3273 14.8454 22.0841C16.4246 21.841 17.6881 21.5978 19.2674 21.1114C21.1625 20.3819 22.4259 19.4092 23.6895 18.1933C24.3212 17.4638 24.9529 16.491 25.2688 15.7615C26.5322 12.357 25.5846 8.95242 21.7942 6.52062C20.8466 6.03425 19.8991 5.5479 18.9515 5.06153C15.1612 3.84563 10.7392 4.33199 7.89646 6.52062C6.94888 7.49333 6.00131 8.46607 5.3696 9.43879C4.10616 12.357 5.05373 15.2751 7.89646 17.4638C9.47576 18.4365 11.6868 18.9229 13.5819 19.166C16.4246 19.166 18.6357 18.1933 20.5308 16.491C21.7942 15.0319 22.11 13.5729 21.7942 11.8706C21.1625 9.92515 19.5832 8.46607 17.3722 7.73653C15.7929 7.25016 13.8978 7.49334 12.3185 7.9797C8.52818 9.19561 7.58061 13.3297 10.7392 15.5183C7.89646 13.3297 8.52819 9.68196 12.0026 8.22288C13.2661 7.73653 14.5295 7.73653 15.7929 7.73653C16.4246 7.73653 17.3722 7.9797 18.0039 8.22288C22.11 9.92515 22.7417 14.5456 19.5832 16.9775C18.9515 17.4638 18.3198 17.9502 17.6881 18.1933C15.7929 18.9229 13.5819 19.166 11.3709 18.6797C7.58061 17.707 5.05373 15.0319 5.05373 11.8706C5.05373 10.8979 5.3696 10.1683 6.00131 9.19561C6.94888 7.73653 8.21233 6.76379 9.79161 5.79108C14.8454 3.35927 21.7942 5.06153 24.3212 9.19561C24.6371 10.1683 24.9529 10.8979 25.2688 11.8706C25.5846 13.5729 24.9529 15.2751 24.3212 16.7341C21.7942 20.8683 14.8454 22.8137 9.15991 21.1114C8.21233 20.8683 7.26476 20.1387 6.31718 19.8956C4.73788 19.166 3.47445 17.707 2.52688 16.2478C-1.26343 10.1683 4.42203 2.87291 12.9502 1.90018C14.5295 1.90018 15.7929 1.90018 17.3722 1.90018C8.52819 0.92746 0 6.52062 1.5793 13.816C1.89515 15.2751 2.52688 16.2478 3.47445 17.4638C4.73788 18.6797 6.00131 19.8956 7.89646 20.6251C9.15991 21.1114 10.4233 21.3546 12.0026 21.5978C14.5295 21.841 16.7405 21.5978 18.9515 20.8683C20.5308 20.3819 21.4783 19.4092 22.7417 18.6797C25.2688 16.2478 26.2163 12.8433 24.6371 9.92515C24.0054 9.19561 23.6895 8.22288 22.7417 7.49334C19.5832 5.06153 15.1612 3.84562 11.0551 5.30471C7.89646 6.52062 6.00131 8.70924 5.3696 11.3842C5.05373 12.357 5.3696 13.3297 5.68546 14.3024C6.31718 15.7615 7.58061 16.7341 9.15991 17.707C10.1075 18.1933 10.7392 18.4365 11.6868 18.6797C16.1088 19.4092 20.8466 17.2206 21.4783 13.5729C21.7942 11.8706 20.5308 10.4115 19.2674 9.19561C16.4246 7.00698 11.0551 7.49334 9.47576 10.4115C9.15991 11.141 8.84404 11.8706 9.15991 12.6001C8.84404 10.1683 11.3709 8.22288 14.2136 7.9797C17.3722 7.73653 20.2149 9.43879 21.1625 11.6274C21.4783 13.3297 21.1625 15.0319 19.5832 16.491C18.6357 17.2206 17.6881 17.707 16.4246 18.1933C15.4771 18.4365 14.8454 18.6797 13.8978 18.6797C9.15991 18.6797 4.73788 15.2751 5.68546 11.141C6.00131 10.1683 6.31718 9.43879 6.63303 8.70924C9.47576 4.81836 16.4246 3.84562 20.8466 6.52062C22.11 7.25016 23.3735 8.22288 24.0054 9.43879C24.9529 10.8979 25.2688 12.357 24.9529 14.0592C24.3212 16.0047 23.3735 17.707 21.4783 19.166C17.6881 21.5978 12.9502 22.0841 8.52819 20.6251C5.05373 19.166 2.52688 16.7341 1.89515 13.5729C1.5793 11.3842 1.89515 9.43879 3.15858 7.49334C4.42203 5.79108 6.00131 4.33199 8.21233 3.60245C9.47576 3.35927 10.4233 2.62973 11.6868 2.38654C17.6881 1.41382 24.0054 3.35927 26.848 7.49334C22.4259 1.41382 10.4233 -0.0452642 4.42203 6.03425C3.47445 7.00698 3.15858 7.73653 2.52688 8.70924C0.947576 11.6274 1.5793 14.5456 3.7903 17.2206C4.73788 17.9502 5.3696 18.6797 6.31718 19.4092C7.89646 20.3819 9.47576 21.1114 11.3709 21.3546C13.8978 21.5978 16.4246 21.3546 18.6357 20.6251C21.1625 19.6524 23.0576 17.9502 24.3212 16.0047C24.9529 14.7888 24.9529 13.5729 24.9529 12.357C24.6371 10.4115 23.6895 8.95242 22.11 7.49334C20.8466 6.76379 19.5832 6.27744 18.3198 5.5479C17.3722 5.06153 16.1088 5.30471 15.1612 5.30471C11.0551 5.06153 6.94888 7.00698 6.00131 10.1683C5.05373 12.8433 6.00131 15.5183 9.15991 17.2206C10.1075 17.707 11.0551 18.1933 12.3185 18.4365C15.4771 18.9229 18.0039 17.9502 19.8991 16.0047C20.2149 15.5183 20.5308 15.0319 20.8466 14.3024C21.7942 10.8979 18.3198 7.49333 13.5819 8.22288C12.3185 8.46607 11.6868 8.95242 10.7392 9.43879C12.9502 7.9797 16.7405 7.49333 18.9515 9.43879C20.2149 10.6547 21.1625 12.1138 20.8466 13.5729C20.5308 14.7888 19.8991 16.0047 18.6357 16.9775C16.7405 18.1933 14.5295 18.4365 12.3185 18.1933C11.3709 18.1933 10.4233 17.9502 9.79161 17.4638C9.15991 16.9775 8.21233 16.7341 7.58061 16.0047C5.68546 14.3024 5.3696 11.8706 6.31718 9.92515C6.94888 9.19561 6.94888 8.46607 7.89646 7.73653C10.1075 6.03425 12.6343 5.06153 15.7929 5.30471C17.6881 5.5479 19.5832 6.03425 21.1625 7.00698C22.7417 8.46607 24.3212 9.92515 24.6371 11.8706C25.2688 16.2478 21.4783 20.3819 15.7929 21.1114C13.5819 21.3546 11.3709 21.3546 9.47576 20.6251C3.7903 18.6797 0.947576 14.0592 2.52688 9.43879C3.15858 7.9797 4.10616 6.76379 5.3696 5.5479C6.63303 4.57517 7.89646 3.84562 9.47576 3.35927C11.3709 2.87291 13.5819 2.38654 15.7929 2.38654C20.2149 2.87291 24.3212 4.81836 26.5322 7.73653C28.7431 10.6547 28.7431 14.0592 27.4797 16.9775C30.3224 11.141 26.2163 3.84562 17.6881 2.62973C16.4246 2.62973 15.4771 2.38654 14.2136 2.38654C11.3709 2.62973 8.52818 3.35927 6.31718 4.81836C3.47445 7.00698 1.5793 9.68196 2.211 12.8433C2.84273 14.3024 2.84273 15.7615 4.10616 17.2206C5.68546 18.9229 7.58061 19.8956 9.79161 20.6251C11.3709 21.1114 12.9502 21.3546 14.8454 21.1114C16.1088 20.8683 17.0564 20.6251 18.3198 20.3819C21.1625 19.4092 23.6895 17.4638 24.0054 15.0319C24.3212 14.0592 24.9529 13.3297 24.6371 12.357C24.0054 10.4115 23.3735 8.95242 21.7942 7.49334C18.0039 4.57517 10.4233 4.57517 7.58061 8.46607C6.63303 9.68196 5.68546 10.8979 6.00131 12.357C6.63303 15.5183 9.79161 18.4365 14.2136 18.1933C18.6357 17.9502 21.7942 14.3024 20.2149 11.141C19.2674 9.68196 17.6881 8.70924 15.4771 8.22288C18.3198 8.70924 20.2149 10.4115 20.5308 12.6001C20.8466 14.5456 19.2674 16.0047 17.6881 17.2206C17.0564 17.707 15.7929 17.707 14.8454 17.9502C13.2661 18.1933 11.6868 17.9502 10.4233 17.4638C8.52819 16.7341 7.26476 15.5183 6.63303 14.0592C5.68546 11.8706 6.63303 10.1683 7.89646 8.22288C8.52818 7.25016 9.79161 6.76379 11.0551 6.27744C12.3185 5.79108 13.5819 5.79108 14.8454 5.5479C16.1088 5.5479 17.6881 5.79108 18.9515 6.27744C21.1625 7.00698 22.7417 8.46607 23.6895 10.1683C24.3212 11.3842 24.3212 12.6001 24.3212 13.816C24.3212 15.5183 23.0576 16.7341 21.7942 18.1933C18.3198 21.3546 12.6343 21.841 7.89646 19.6524C5.68546 18.4365 4.10616 16.9775 3.15858 15.0319C1.89515 12.357 2.52688 9.68196 4.42203 7.25016C5.05373 6.52062 5.68546 5.79108 6.63303 5.06153C9.79161 3.11608 13.5819 2.62973 17.3722 2.87291C20.2149 3.35927 22.4259 4.57517 24.6371 6.03425C30.3224 10.6547 28.7431 17.9502 22.11 21.841C20.8466 22.5705 19.5832 22.3273 18.6357 23.3C27.4797 20.6251 31.5858 11.6274 24.6371 6.03425C23.6895 5.30471 22.7417 4.57517 21.4783 4.08882C19.8991 3.60245 18.3198 3.11608 16.7405 2.87291C14.8454 2.62973 12.9502 2.87291 11.0551 3.11608C9.15991 3.60245 7.26476 4.33199 6.00131 5.5479C3.7903 7.49334 2.52688 9.92515 2.52688 12.357C2.84273 13.5729 3.15858 15.0319 3.7903 16.2478C4.42203 17.4638 5.68546 18.1933 6.94888 19.166C8.52819 20.1387 10.4233 20.6251 12.6343 20.8683C14.2136 21.1114 15.7929 20.8683 17.3722 20.3819C19.8991 19.4092 22.11 18.1933 23.3735 16.2478C24.9529 13.0865 24.3212 9.43879 20.8466 7.25016C18.0039 5.5479 14.2136 5.06153 11.0551 6.27744C9.47576 7.00698 7.89646 7.73653 7.26476 9.19561C5.68546 12.357 6.63303 16.2478 11.0551 17.4638C12.6343 17.9502 13.8978 17.707 15.4771 17.707C17.0564 17.4638 18.0039 16.491 18.9515 15.7615C19.5832 15.2751 19.8991 14.5456 20.2149 14.0592C20.5308 13.3297 20.2149 12.6001 20.2149 11.8706C19.8991 11.3842 19.5832 10.6547 19.2674 10.1683C20.5308 12.357 20.5308 14.7888 18.3198 16.491C16.1088 17.707 12.9502 18.4365 10.4233 17.2206C9.15991 16.491 8.21233 15.7615 7.58061 14.7888C6.94888 13.5729 6.31718 12.6001 6.63303 11.3842C6.94889 10.1683 7.26476 8.95242 8.52819 7.9797C10.4233 6.27744 13.5819 5.79108 16.4246 6.03425C20.8466 6.52062 24.0054 9.68196 24.0054 13.0865C24.0054 14.5456 23.0576 16.0047 22.11 17.4638C20.8466 18.9229 19.2674 19.4092 17.3722 20.1387C15.7929 20.6251 14.2136 20.8683 12.3185 20.6251C11.3709 20.6251 10.7392 20.3819 9.79161 20.1387C3.47445 18.1933 0.631718 12.1138 4.42203 7.49334C5.3696 6.52062 6.31718 5.30471 7.89646 4.57517C10.4233 3.35927 13.2661 2.87291 16.4246 3.11608C18.9515 3.35927 21.1625 4.08882 23.0576 5.30471C29.059 9.19561 29.059 16.491 23.3735 20.6251C22.11 21.3546 21.1625 22.0841 19.5832 22.5705C15.7929 23.7864 11.6868 23.7864 7.89646 22.5705C15.7929 25.2456 26.2163 21.5978 27.4797 14.5456C27.7956 12.357 27.4797 10.4115 26.2163 8.46607C25.5846 7.49334 24.6371 6.76379 23.6895 5.79108C22.7417 4.81836 21.1625 4.57517 19.8991 3.84563C18.9515 3.35927 17.6881 3.35927 16.4246 3.11608C11.6868 2.62973 7.26476 4.08882 4.73788 7.25016C2.52688 10.1683 2.211 13.5729 4.42203 16.491C5.3696 17.2206 6.00131 17.9502 6.94888 18.6797C8.21233 19.6524 9.79161 19.8956 11.0551 20.3819C12.6343 20.6251 14.2136 20.6251 15.7929 20.3819C18.0039 20.1387 19.5832 19.4092 21.1625 18.1933C23.3735 16.491 24.3212 14.0592 23.6895 11.6274C23.3735 10.8979 23.0576 10.1683 22.7417 9.43879C19.8991 5.5479 12.6343 4.57517 8.52819 8.22288C7.26476 9.68196 6.63303 11.3842 6.94888 13.0865C7.58061 16.0047 11.0551 17.707 14.5295 17.4638C17.3722 17.2206 20.2149 15.2751 19.8991 12.8433C20.2149 15.2751 17.0564 17.2206 14.2136 17.4638C11.6868 17.707 9.47576 16.7341 8.21233 15.2751C7.26476 14.0592 6.63303 12.8433 6.94888 11.3842C7.26476 10.1683 7.89646 9.19561 8.84404 8.22288C10.1075 7.49333 11.3709 6.27744 13.2661 6.27744C15.4771 6.03425 17.3722 6.27744 19.2674 7.00698C24.0054 9.19561 24.9529 14.5456 21.1625 17.707C20.2149 18.6797 18.6357 19.4092 17.3722 19.8956C15.7929 20.3819 14.2136 20.3819 12.6343 20.3819C11.6868 20.3819 11.0551 20.1387 10.1075 19.8956C3.47445 17.9502 0.947576 11.141 5.68546 6.76379C10.4233 1.90018 19.8991 2.14336 24.6371 7.00698C25.5846 7.9797 26.2163 8.95242 26.848 10.1683C28.1114 14.3024 26.5322 18.4365 22.11 21.1114C16.7405 24.0296 9.47576 24.0295 4.67597 20.5711C2.62668 19.0991 1.93621 18.3776 1.93621 18.3776Z" fill="black"/>
</svg>
