<svg width="614" height="522" viewBox="0 0 614 522" fill="none" xmlns="http://www.w3.org/2000/svg">
<path d="M53.5743 429.411L2 519.222L100.703 520.111L331.009 125.3L370.134 126.189L372.802 123.522L302.554 1.69971H298.108L223.414 123.522L227.86 129.746H256.315L85.586 429.411H53.5743Z" fill="#050505" stroke="black" stroke-width="1.77843"/>
<path d="M329.23 241.787L338.122 232.006L508.851 520.111H612L389.697 142.195H369.245L318.56 226.671L329.23 241.787Z" fill="#050505" stroke="black" stroke-width="1.77843"/>
<path d="M390.586 427.633H221.636V416.073H202.962L146.052 514.775V521H435.936L443.05 514.775L390.586 427.633Z" fill="#050505" stroke="black" stroke-width="1.77843"/>
<path fill-rule="evenodd" clip-rule="evenodd" d="M238.531 369.834L269.804 368.188L303.273 355.569L333.175 368.188L365.272 369.834L303.273 266.685V344.047L238.531 369.834Z" fill="#070707"/>
<path d="M238.531 369.834L303.273 266.685M238.531 369.834L303.273 344.047M238.531 369.834L269.804 368.188L303.273 355.569L333.175 368.188L365.272 369.834M303.273 266.685L365.272 369.834M303.273 266.685V344.047M365.272 369.834L303.273 344.047" stroke="black" stroke-width="1.09733"/>
</svg>
